<?xml version="1.0" encoding="utf-8"?>
<!-- Generator: Adobe Illustrator 25.0.0, SVG Export Plug-In . SVG Version: 6.00 Build 0)  -->
<svg version="1.1" id="Layer_1" xmlns="http://www.w3.org/2000/svg" xmlns:xlink="http://www.w3.org/1999/xlink" x="0px" y="0px"
	 viewBox="0 0 800 450" style="enable-background:new 0 0 800 450;" xml:space="preserve">
<style type="text/css">
	.st0{fill:url(#SVGID_1_);}
	.st1{fill:url(#SVGID_2_);}
	.st2{fill:url(#SVGID_3_);}
	.st3{fill:url(#SVGID_4_);}
	.st4{fill:url(#SVGID_5_);}
	.st5{fill:url(#SVGID_6_);}
	.st6{fill:url(#SVGID_7_);}
	.st7{fill:#B7D333;}
	.st8{opacity:0.7;fill:#C3E8FA;}
	.st9{fill:#667180;}
	.st10{opacity:0.5;fill:url(#SVGID_8_);enable-background:new    ;}
	.st11{fill:#2B2E2F;}
	.st12{fill:url(#SVGID_9_);}
	.st13{fill:#262728;}
	.st14{fill:url(#SVGID_10_);}
	.st15{fill:#1D1F20;}
	.st16{fill:#969EA5;}
	.st17{opacity:0.3;fill:#2B2E2F;enable-background:new    ;}
	.st18{opacity:0.3;fill:#1D1F20;enable-background:new    ;}
	.st19{fill:url(#SVGID_11_);}
	.st20{opacity:0.2;fill:#5C6774;enable-background:new    ;}
	.st21{fill:url(#SVGID_12_);}
	.st22{fill:#6F7B86;}
	.st23{opacity:0.5;fill:url(#SVGID_13_);enable-background:new    ;}
	.st24{fill:#7F8A99;}
	.st25{fill:url(#SVGID_14_);}
	.st26{fill:#3E464E;}
	.st27{fill:url(#SVGID_15_);}
	.st28{fill:#4D575F;}
	.st29{fill:#8E979F;}
	.st30{opacity:0.4;fill:#4D575F;enable-background:new    ;}
	.st31{opacity:0.5;fill:#4D575F;enable-background:new    ;}
	.st32{fill:#5C6774;}
	.st33{fill:#303233;}
	.st34{opacity:0.3;fill:#5C6774;enable-background:new    ;}
	.st35{fill:url(#SVGID_16_);}
	.st36{fill:#697480;}
	.st37{opacity:0.5;fill:url(#SVGID_17_);enable-background:new    ;}
	.st38{fill:#798494;}
	.st39{opacity:0.8;fill:url(#SVGID_18_);enable-background:new    ;}
	.st40{fill:url(#SVGID_19_);}
	.st41{opacity:0.4;fill:#262728;enable-background:new    ;}
	.st42{fill:#444A50;}
	.st43{fill:#6F7983;}
	.st44{opacity:0.4;fill:url(#SVGID_20_);enable-background:new    ;}
	.st45{opacity:0.7;fill:#969EA5;enable-background:new    ;}
	.st46{opacity:0.7;fill:url(#SVGID_21_);enable-background:new    ;}
	.st47{fill:#373B40;}
	.st48{fill:url(#SVGID_22_);}
	.st49{opacity:0.7;fill:#373B40;enable-background:new    ;}
	.st50{opacity:0.7;fill:url(#SVGID_23_);enable-background:new    ;}
	.st51{fill:#31363B;}
	.st52{fill:url(#SVGID_24_);}
	.st53{fill:#616B76;}
	.st54{opacity:0.8;fill:#8E979F;enable-background:new    ;}
	.st55{opacity:0.7;fill:url(#SVGID_25_);enable-background:new    ;}
	.st56{fill:url(#SVGID_26_);}
	.st57{opacity:0.5;fill:url(#SVGID_27_);enable-background:new    ;}
	.st58{opacity:0.7;fill:url(#SVGID_28_);enable-background:new    ;}
	.st59{fill:url(#SVGID_29_);}
	.st60{fill:#474D55;}
	.st61{fill:url(#SVGID_30_);}
	.st62{fill:#2E3439;}
	.st63{fill:#384149;}
	.st64{fill:#121313;}
	.st65{fill:#303437;}
	.st66{fill:url(#SVGID_31_);}
	.st67{opacity:0.7;}
	.st68{opacity:0.6;fill:#373B40;enable-background:new    ;}
	.st69{opacity:0.4;fill:url(#SVGID_32_);enable-background:new    ;}
	.st70{opacity:0.6;fill:url(#SVGID_33_);enable-background:new    ;}
	.st71{fill:url(#SVGID_34_);}
	.st72{opacity:0.4;fill:url(#SVGID_35_);enable-background:new    ;}
	.st73{opacity:0.6;fill:url(#SVGID_36_);enable-background:new    ;}
	.st74{fill:#4F5864;}
	.st75{opacity:0.3;fill:url(#SVGID_37_);enable-background:new    ;}
	.st76{opacity:0.4;fill:url(#SVGID_38_);enable-background:new    ;}
	.st77{opacity:0.6;fill:url(#SVGID_39_);enable-background:new    ;}
	.st78{opacity:0.5;fill:url(#SVGID_40_);enable-background:new    ;}
	.st79{opacity:0.4;fill:url(#SVGID_41_);enable-background:new    ;}
	.st80{fill:#101010;}
	.st81{fill:#161819;}
	.st82{fill:#434343;}
	.st83{fill:url(#SVGID_42_);}
	.st84{fill:url(#SVGID_43_);}
	.st85{opacity:0.4;fill:#3E464E;enable-background:new    ;}
	.st86{opacity:0.8;fill:#3E464E;enable-background:new    ;}
	.st87{fill:#4E5762;}
	.st88{opacity:0.8;fill:#4E5762;enable-background:new    ;}
	.st89{opacity:0.4;fill:#4E5762;enable-background:new    ;}
	.st90{fill:url(#SVGID_44_);}
	.st91{opacity:0.7;fill:#545D69;enable-background:new    ;}
	.st92{fill:#545D69;}
	.st93{fill:#3A3E40;}
	.st94{fill:url(#SVGID_45_);}
	.st95{fill:url(#SVGID_46_);}
	.st96{fill:url(#SVGID_47_);}
	.st97{fill:url(#SVGID_48_);}
	.st98{fill:url(#SVGID_49_);}
	.st99{fill:url(#SVGID_50_);}
	.st100{fill:url(#SVGID_51_);}
	.st101{fill:url(#SVGID_52_);}
	.st102{opacity:0.6;fill:#434343;enable-background:new    ;}
	.st103{fill:#393939;}
	.st104{opacity:0.7;fill:#393939;enable-background:new    ;}
	.st105{opacity:0.3;fill:#393939;enable-background:new    ;}
	.st106{fill:#1D1D1D;}
	.st107{fill:#4A5053;}
	.st108{fill:url(#SVGID_53_);}
	.st109{fill:#3E4244;}
	.st110{opacity:0.4;fill:#434343;enable-background:new    ;}
	.st111{fill:url(#SVGID_54_);}
	.st112{fill:url(#SVGID_55_);}
	.st113{opacity:0.8;fill:#434343;enable-background:new    ;}
	.st114{opacity:0.7;fill:#FFFFFF;enable-background:new    ;}
	.st115{fill:url(#SVGID_56_);}
	.st116{opacity:0.6;fill:#3B3B3B;enable-background:new    ;}
	.st117{fill:url(#SVGID_57_);}
	.st118{fill:#3B3B3B;}
	.st119{fill:url(#SVGID_58_);}
	.st120{opacity:0.7;fill:#3B3B3B;enable-background:new    ;}
	.st121{opacity:0.5;fill:#434343;enable-background:new    ;}
	.st122{fill:url(#SVGID_59_);}
	.st123{fill:#1E2224;}
	.st124{fill:#25282A;}
	.st125{fill:url(#SVGID_60_);}
	.st126{fill:#2E3234;}
	.st127{opacity:0.5;fill:#2E3234;enable-background:new    ;}
	.st128{fill:url(#SVGID_61_);}
	.st129{fill:#323639;}
	.st130{fill:url(#SVGID_62_);}
	.st131{opacity:0.6;fill:#3A3E40;enable-background:new    ;}
	.st132{fill:url(#SVGID_63_);}
	.st133{opacity:0.8;fill:url(#SVGID_64_);enable-background:new    ;}
	.st134{fill:url(#SVGID_65_);}
	.st135{fill:url(#SVGID_66_);}
	.st136{fill:url(#SVGID_67_);}
	.st137{fill:url(#SVGID_68_);}
	.st138{fill:url(#SVGID_69_);}
	.st139{fill:url(#SVGID_70_);}
	.st140{fill:url(#SVGID_71_);}
	.st141{opacity:0.5;fill:#FFFFFF;enable-background:new    ;}
	.st142{fill:url(#SVGID_72_);}
	.st143{fill:#51575D;}
	.st144{fill:url(#SVGID_73_);}
	.st145{opacity:0.9;fill:#373B40;enable-background:new    ;}
	.st146{opacity:0.4;fill:#393939;enable-background:new    ;}
	.st147{opacity:0.2;fill:#4F5864;enable-background:new    ;}
	.st148{fill:#323434;}
	.st149{fill:#343739;}
	.st150{fill:url(#SVGID_74_);}
	.st151{fill:url(#SVGID_75_);}
	.st152{opacity:0.5;fill:url(#SVGID_76_);enable-background:new    ;}
	.st153{fill:url(#SVGID_77_);}
	.st154{fill:url(#SVGID_78_);}
	.st155{fill:url(#SVGID_79_);}
	.st156{fill:url(#SVGID_80_);}
	.st157{fill:url(#SVGID_81_);}
	.st158{fill:url(#SVGID_82_);}
	.st159{fill:url(#SVGID_83_);}
	.st160{fill:url(#SVGID_84_);}
	.st161{opacity:0.3;fill:url(#SVGID_85_);enable-background:new    ;}
	.st162{opacity:0.3;fill:url(#SVGID_86_);enable-background:new    ;}
	.st163{opacity:0.6;fill:#FFFFFF;enable-background:new    ;}
	.st164{opacity:0.6;fill:#4F5864;enable-background:new    ;}
	.st165{fill:#808891;}
	.st166{fill:url(#SVGID_87_);}
	.st167{fill:#232526;}
	.st168{opacity:0.7;fill:url(#SVGID_88_);enable-background:new    ;}
	.st169{opacity:0.6;fill:#232526;enable-background:new    ;}
	.st170{fill:#3D444C;}
	.st171{fill:url(#SVGID_89_);}
	.st172{opacity:0.7;fill:url(#SVGID_90_);enable-background:new    ;}
	.st173{opacity:0.4;fill:#232526;enable-background:new    ;}
	.st174{fill:url(#SVGID_91_);}
	.st175{fill:url(#SVGID_92_);}
	.st176{opacity:0.3;fill:#D4B196;}
	.st177{fill:url(#SVGID_93_);}
	.st178{opacity:0.3;fill:#C79975;}
	.st179{opacity:0.5;fill:#66442A;}
	.st180{opacity:0.5;fill:#7E5433;}
	.st181{opacity:0.7;fill:#C3926D;}
	.st182{opacity:0.5;fill:#432C1B;}
	.st183{fill:#E0E1E2;}
	.st184{fill:#3A3C3F;}
	.st185{fill:#FFFFFF;}
	.st186{fill:#5C5D61;}
	.st187{fill:#008ED0;}
	.st188{fill:#96B8C7;}
	.st189{fill:url(#SVGID_94_);}
	.st190{opacity:0.7;fill:#C9E9EB;}
	.st191{fill:url(#SVGID_95_);}
	.st192{fill:url(#SVGID_96_);}
	.st193{fill:url(#SVGID_97_);}
	.st194{fill:url(#SVGID_98_);}
	.st195{fill:url(#SVGID_99_);}
	.st196{fill:url(#SVGID_100_);}
	.st197{opacity:0.5;fill:#68B6E5;}
	.st198{opacity:0.4;}
	.st199{fill:url(#SVGID_101_);}
	.st200{fill:url(#SVGID_102_);}
	.st201{opacity:0.3;fill:#96BED4;}
	.st202{fill:url(#SVGID_103_);}
	.st203{opacity:0.3;fill:#75A9C7;}
	.st204{opacity:0.5;fill:#2A5066;}
	.st205{opacity:0.5;fill:#33627E;}
	.st206{opacity:0.7;fill:#6DA4C3;}
	.st207{opacity:0.5;fill:#1B3443;}
	.st208{fill:url(#SVGID_104_);}
	.st209{fill:#737679;}
	.st210{opacity:0.5;fill:#737679;}
	.st211{fill:url(#SVGID_105_);}
	.st212{fill:#B1B3B6;}
	.st213{opacity:0.5;fill:#FFFFFF;}
	.st214{fill:url(#SVGID_106_);}
	.st215{fill:#CFD1D2;}
	.st216{fill:url(#SVGID_107_);}
	.st217{opacity:0.6;}
	.st218{fill:#648199;}
	.st219{fill:url(#SVGID_108_);}
	.st220{fill:#4A6174;}
	.st221{fill:url(#SVGID_109_);}
	.st222{opacity:0.4;fill:url(#SVGID_110_);}
	.st223{fill:none;}
	.st224{fill:#696768;}
	.st225{fill:#151515;}
	.st226{fill:url(#SVGID_111_);}
	.st227{fill:#494C4E;}
	.st228{fill:#36393B;}
	.st229{fill:url(#SVGID_112_);}
	.st230{fill:#007B9C;}
	.st231{fill:url(#SVGID_113_);}
	.st232{fill:url(#SVGID_114_);}
	.st233{fill:url(#SVGID_115_);}
	.st234{fill:url(#SVGID_116_);}
	.st235{fill:url(#SVGID_117_);}
	.st236{fill:url(#SVGID_118_);}
	.st237{fill:url(#SVGID_119_);}
	.st238{fill:url(#SVGID_120_);}
	.st239{fill:url(#SVGID_121_);}
	.st240{fill:url(#SVGID_122_);}
	.st241{fill:url(#SVGID_123_);}
	.st242{fill:#71C0EB;}
	.st243{opacity:0.3;fill:#008BB8;}
	.st244{fill:#828487;}
	.st245{fill:#C0C2C4;}
	.st246{fill:#1A1C1E;}
	.st247{fill:#45484A;}
	.st248{fill:#F8A344;}
	.st249{fill:url(#SVGID_124_);}
	.st250{fill:url(#SVGID_125_);}
	.st251{fill:url(#SVGID_126_);}
	.st252{fill:url(#SVGID_127_);}
	.st253{fill:url(#SVGID_128_);}
	.st254{fill:url(#SVGID_129_);}
	.st255{fill:url(#SVGID_130_);}
	.st256{fill:url(#SVGID_131_);}
	.st257{fill:url(#SVGID_132_);}
	.st258{fill:url(#SVGID_133_);}
	.st259{fill:url(#SVGID_134_);}
	.st260{fill:url(#SVGID_135_);}
	.st261{fill:url(#SVGID_136_);}
	.st262{opacity:0.4;fill:url(#SVGID_137_);}
	.st263{opacity:0.4;fill:url(#SVGID_138_);}
	.st264{opacity:0.4;fill:url(#SVGID_139_);}
	.st265{opacity:0.2;fill:url(#SVGID_140_);}
	.st266{opacity:0.4;fill:#7E602D;}
	.st267{fill:#9696A3;}
	.st268{opacity:0.9;fill:#FFFFFF;}
	.st269{opacity:0.6;fill:#525557;}
	.st270{fill:#575A5B;}
	.st271{fill:#626467;}
	.st272{fill:url(#SVGID_141_);}
	.st273{opacity:0.6;fill:#B3B5B8;}
	.st274{fill:url(#SVGID_142_);}
	.st275{fill:#9D9FA1;}
	.st276{opacity:0.5;fill:#9D9FA1;}
	.st277{fill:#C2C4C6;}
	.st278{fill:#3E4042;}
	.st279{opacity:0.4;fill:#9696A3;}
	.st280{opacity:0.9;fill:#9696A3;}
	.st281{opacity:0.4;fill:#FFFFFF;}
	.st282{fill:#61626B;}
	.st283{fill:#EBEBEC;}
	.st284{fill:#818386;}
	.st285{fill:#D9D9DB;}
	.st286{opacity:0.8;fill:#D9D9DB;}
	.st287{opacity:0.7;fill:#EBEBEC;}
	.st288{fill:#B1B2B4;}
	.st289{fill:#D3D4D5;}
	.st290{opacity:0.5;fill:#D9D9DB;}
	.st291{fill:#C9CACC;}
	.st292{fill:#C7C8CA;}
	.st293{fill:#2A416F;}
	.st294{opacity:0.5;fill:#C9CACC;}
	.st295{fill:url(#SVGID_143_);}
	.st296{fill:url(#SVGID_144_);}
	.st297{fill:url(#SVGID_145_);}
	.st298{fill:url(#SVGID_146_);}
	.st299{fill:#C6C8D0;}
	.st300{fill:url(#SVGID_147_);}
	.st301{fill:#6B6C6F;}
	.st302{fill:#BEBFC1;}
	.st303{opacity:0.5;fill:#EBEBEC;}
	.st304{fill:url(#SVGID_148_);}
	.st305{opacity:0.2;fill:#764747;}
	.st306{opacity:0.6;fill:#E1CCCC;}
	.st307{opacity:0.7;fill:#311D1D;}
	.st308{opacity:0.7;fill:#190F0F;}
	.st309{fill:#311D1D;}
	.st310{opacity:0.9;fill:url(#SVGID_149_);}
	.st311{fill:url(#SVGID_150_);}
	.st312{opacity:0.6;fill:#A898AB;}
	.st313{opacity:0.6;fill:#4A5CA9;}
	.st314{fill:url(#SVGID_151_);}
	.st315{fill:url(#SVGID_152_);}
	.st316{fill:url(#SVGID_153_);}
	.st317{fill:url(#SVGID_154_);}
	.st318{fill:url(#SVGID_155_);}
	.st319{fill:url(#SVGID_156_);}
	.st320{fill:url(#SVGID_157_);}
	.st321{fill:url(#SVGID_158_);}
	.st322{fill:url(#SVGID_159_);}
	.st323{fill:url(#SVGID_160_);}
	.st324{fill:url(#SVGID_161_);}
	.st325{fill:url(#SVGID_162_);}
	.st326{fill:url(#SVGID_163_);}
	.st327{fill:url(#SVGID_164_);}
	.st328{opacity:0.6;fill:url(#SVGID_165_);}
	.st329{opacity:0.7;fill:url(#SVGID_166_);}
	.st330{opacity:0.6;fill:#FFF8A7;}
	.st331{opacity:0.6;fill:#EF7B5A;}
	.st332{fill:url(#SVGID_167_);}
	.st333{opacity:0.5;fill:#8CA4AF;}
	.st334{opacity:0.4;fill:#B9E5FB;}
	.st335{fill:url(#SVGID_168_);}
	.st336{fill:url(#SVGID_169_);}
	.st337{fill:#C18EA6;}
	.st338{opacity:0.6;fill:#C2989C;}
	.st339{opacity:0.6;fill:#D9D9DB;}
	.st340{opacity:0.6;fill:#EBEBEC;}
	.st341{fill:url(#SVGID_170_);}
	.st342{fill:url(#SVGID_171_);}
	.st343{fill:url(#SVGID_172_);}
	.st344{fill:url(#SVGID_173_);}
	.st345{fill:url(#SVGID_174_);}
	.st346{fill:#E2E3E4;}
	.st347{fill:#AAACAE;}
	.st348{opacity:0.5;fill:#AAACAE;}
	.st349{fill:#EFEFF0;}
	.st350{fill:#8F9193;}
	.st351{fill:url(#SVGID_175_);}
	.st352{fill:url(#SVGID_176_);}
	.st353{fill:#657483;}
	.st354{fill:url(#SVGID_177_);}
	.st355{fill:url(#SVGID_178_);}
	.st356{fill:#777A7C;}
	.st357{opacity:0.5;fill:#EFEFF0;}
	.st358{fill:#303134;}
	.st359{fill:url(#SVGID_179_);}
	.st360{fill:#767871;}
	.st361{fill:url(#SVGID_180_);}
	.st362{clip-path:url(#SVGID_182_);fill:url(#SVGID_183_);}
	.st363{fill:url(#SVGID_184_);}
	.st364{opacity:0.2;fill:url(#SVGID_185_);enable-background:new    ;}
	.st365{opacity:0.3;fill:url(#SVGID_186_);enable-background:new    ;}
	.st366{opacity:0.5;fill:url(#SVGID_187_);enable-background:new    ;}
	.st367{fill:url(#SVGID_188_);}
	.st368{fill:url(#SVGID_189_);}
	.st369{fill:url(#SVGID_190_);}
	.st370{fill:url(#SVGID_191_);}
	.st371{fill:#B6B6AE;}
	.st372{fill:#C6C6BC;}
	.st373{fill:url(#SVGID_192_);}
	.st374{fill:#797972;}
	.st375{opacity:0.2;fill:#797972;enable-background:new    ;}
	.st376{fill:#878984;}
	.st377{fill:#EAE8DF;}
	.st378{opacity:0.5;fill:#EAE8DF;enable-background:new    ;}
	.st379{fill:#FBF9EB;}
	.st380{fill:#C1D0EC;}
	.st381{fill:#7686C3;}
	.st382{fill:#A1A59E;}
	.st383{opacity:0.5;fill:#FBF9EB;enable-background:new    ;}
	.st384{fill:#5B6DA9;}
	.st385{fill:#465380;}
	.st386{opacity:0.7;fill:#C6C6BC;enable-background:new    ;}
	.st387{fill:#DFE3DA;}
	.st388{opacity:0.5;fill:#C6C6BC;enable-background:new    ;}
	.st389{fill:url(#SVGID_193_);}
	.st390{fill:#74746F;}
	.st391{fill:#444541;}
	.st392{fill:url(#SVGID_194_);}
	.st393{clip-path:url(#SVGID_196_);fill:url(#SVGID_197_);}
	.st394{fill:#FBFBFB;}
	.st395{opacity:0.5;fill:#465380;enable-background:new    ;}
	.st396{fill:#9A9B94;}
	.st397{opacity:0.5;}
	.st398{fill:#191A17;}
	.st399{fill:#2A2929;}
	.st400{fill:url(#SVGID_198_);}
	.st401{opacity:0.3;fill:url(#SVGID_199_);enable-background:new    ;}
	.st402{fill:url(#SVGID_200_);}
	.st403{fill:url(#SVGID_201_);}
	.st404{fill:url(#SVGID_202_);}
	.st405{fill:url(#SVGID_203_);}
	.st406{fill:url(#SVGID_204_);}
	.st407{fill:url(#SVGID_205_);}
	.st408{fill:url(#SVGID_206_);}
	.st409{fill:url(#SVGID_207_);}
	.st410{fill:url(#SVGID_208_);}
	.st411{fill:url(#SVGID_209_);}
	.st412{fill:url(#SVGID_210_);}
	.st413{fill:url(#SVGID_211_);}
	.st414{fill:url(#SVGID_212_);}
	.st415{fill:#6A6B68;}
	.st416{fill:#8F9089;}
	.st417{opacity:0.3;fill:#465380;enable-background:new    ;}
	.st418{fill:#859CD1;}
	.st419{opacity:0.8;fill:#FBF9EB;enable-background:new    ;}
	.st420{fill:#B1B1A9;}
	.st421{fill:#D9D6CF;}
	.st422{fill:#A6A69F;}
	.st423{opacity:0.5;fill:#8F9089;enable-background:new    ;}
	.st424{opacity:0.3;fill:#FBF9EB;enable-background:new    ;}
	.st425{opacity:0.8;fill:#FFFFFF;enable-background:new    ;}
	.st426{fill:#FF0026;}
	.st427{fill:#97999C;}
	.st428{fill:#C6C8C9;}
	.st429{opacity:0.9;fill:#B3B5B8;}
	.st430{fill:url(#SVGID_213_);}
	.st431{fill:#696B6D;}
	.st432{fill:url(#SVGID_214_);}
	.st433{fill:url(#SVGID_215_);}
	.st434{fill:url(#SVGID_216_);}
	.st435{fill:#C8CACB;}
	.st436{opacity:0.5;fill:#FFF2BB;}
	.st437{fill:#C2DBDF;}
	.st438{fill:#989B9D;}
	.st439{fill:url(#SVGID_217_);}
	.st440{fill:url(#SVGID_218_);}
	.st441{fill:url(#SVGID_219_);}
	.st442{fill:url(#SVGID_220_);}
	.st443{fill:url(#SVGID_221_);}
	.st444{fill:url(#SVGID_222_);}
	.st445{fill:url(#SVGID_223_);}
	.st446{fill:url(#SVGID_224_);}
	.st447{fill:url(#SVGID_225_);}
	.st448{fill:url(#SVGID_226_);}
	.st449{fill:url(#SVGID_227_);}
	.st450{fill:url(#SVGID_228_);}
	.st451{fill:url(#SVGID_229_);}
	.st452{fill:url(#SVGID_230_);}
	.st453{fill:url(#SVGID_231_);}
	.st454{fill:url(#SVGID_232_);}
	.st455{opacity:0.5;fill:#3D2F29;enable-background:new    ;}
	.st456{fill:url(#SVGID_233_);}
	.st457{fill:#7E6A50;}
	.st458{fill:#423326;}
	.st459{opacity:0.8;fill:url(#SVGID_234_);enable-background:new    ;}
	.st460{opacity:0.8;fill:url(#SVGID_235_);enable-background:new    ;}
	.st461{fill:url(#SVGID_236_);}
	.st462{opacity:0.3;}
	.st463{opacity:0.1;}
	.st464{fill:url(#SVGID_237_);}
	.st465{fill:url(#SVGID_238_);}
	.st466{opacity:0.5;fill:url(#SVGID_239_);enable-background:new    ;}
	.st467{opacity:0.2;fill:url(#SVGID_240_);enable-background:new    ;}
	.st468{opacity:0.3;fill:url(#SVGID_241_);enable-background:new    ;}
	.st469{opacity:0.3;fill:url(#SVGID_242_);enable-background:new    ;}
	.st470{fill:url(#SVGID_243_);}
	.st471{fill:url(#SVGID_244_);}
	.st472{fill:url(#SVGID_245_);}
	.st473{fill:#3D2F29;}
	.st474{fill:url(#SVGID_246_);}
	.st475{fill:url(#SVGID_247_);}
	.st476{fill:url(#SVGID_248_);}
	.st477{fill:url(#SVGID_249_);}
	.st478{fill:url(#SVGID_250_);}
	.st479{fill:url(#SVGID_251_);}
	.st480{opacity:0.3;fill:url(#SVGID_252_);enable-background:new    ;}
	.st481{fill:url(#SVGID_253_);}
	.st482{opacity:0.3;fill:url(#SVGID_254_);enable-background:new    ;}
	.st483{opacity:0.3;fill:url(#SVGID_255_);enable-background:new    ;}
	.st484{fill:url(#SVGID_256_);}
	.st485{fill:url(#SVGID_257_);}
	.st486{fill:url(#SVGID_258_);}
	.st487{fill:url(#SVGID_259_);}
	.st488{fill:url(#SVGID_260_);}
	.st489{fill:url(#SVGID_261_);}
	.st490{fill:#60503F;}
	.st491{opacity:0.5;fill:url(#SVGID_262_);enable-background:new    ;}
	.st492{opacity:0.3;fill:url(#SVGID_263_);enable-background:new    ;}
	.st493{fill:url(#SVGID_264_);}
	.st494{fill:url(#SVGID_265_);}
	.st495{fill:url(#SVGID_266_);}
	.st496{fill:url(#SVGID_267_);}
	.st497{opacity:0.5;fill:#423326;enable-background:new    ;}
	.st498{opacity:0.5;fill:url(#SVGID_268_);enable-background:new    ;}
	.st499{opacity:0.5;fill:url(#SVGID_269_);enable-background:new    ;}
	.st500{opacity:0.5;fill:url(#SVGID_270_);enable-background:new    ;}
	.st501{fill:#786957;}
	.st502{fill:url(#SVGID_271_);}
	.st503{fill:url(#SVGID_272_);}
	.st504{fill:url(#SVGID_273_);}
	.st505{opacity:0.3;fill:url(#SVGID_274_);enable-background:new    ;}
	.st506{opacity:0.5;fill:#786957;enable-background:new    ;}
	.st507{opacity:0.5;fill:url(#SVGID_275_);enable-background:new    ;}
	.st508{fill:url(#SVGID_276_);}
	.st509{opacity:0.5;fill:#60503F;enable-background:new    ;}
	.st510{fill:url(#SVGID_277_);}
	.st511{opacity:0.3;fill:#60503F;enable-background:new    ;}
	.st512{fill:url(#SVGID_278_);}
	.st513{fill:url(#SVGID_279_);}
	.st514{fill:url(#SVGID_280_);}
	.st515{fill:url(#SVGID_281_);}
	.st516{fill:url(#SVGID_282_);}
	.st517{opacity:0.5;fill:url(#SVGID_283_);enable-background:new    ;}
	.st518{opacity:0.5;fill:url(#SVGID_284_);enable-background:new    ;}
	.st519{fill:url(#SVGID_285_);}
	.st520{fill:url(#SVGID_286_);}
	.st521{fill:url(#SVGID_287_);}
	.st522{fill:url(#SVGID_288_);}
	.st523{fill:url(#SVGID_289_);}
	.st524{fill:url(#SVGID_290_);}
	.st525{opacity:0.5;fill:url(#SVGID_291_);enable-background:new    ;}
	.st526{clip-path:url(#SVGID_293_);}
	.st527{fill:url(#SVGID_294_);}
	.st528{fill:#FDFCF5;}
	.st529{fill:url(#SVGID_295_);}
	.st530{opacity:0.5;fill:#B9A989;enable-background:new    ;}
	.st531{clip-path:url(#SVGID_297_);}
	.st532{fill:url(#SVGID_298_);}
	.st533{fill:url(#SVGID_299_);}
	.st534{clip-path:url(#SVGID_301_);}
	.st535{fill:url(#SVGID_302_);}
	.st536{fill:url(#SVGID_303_);}
	.st537{fill:url(#SVGID_304_);}
	.st538{fill:url(#SVGID_305_);}
	.st539{fill:url(#SVGID_306_);}
	.st540{fill:url(#SVGID_307_);}
	.st541{opacity:0.5;fill:url(#SVGID_308_);enable-background:new    ;}
	.st542{fill:url(#SVGID_309_);}
	.st543{fill:url(#SVGID_310_);}
	.st544{fill:url(#SVGID_311_);}
	.st545{fill:url(#SVGID_312_);}
	.st546{fill:url(#SVGID_313_);}
	.st547{fill:url(#SVGID_314_);}
	.st548{fill:url(#SVGID_315_);}
	.st549{opacity:0.5;fill:#FDFCF5;enable-background:new    ;}
	.st550{opacity:0.5;fill:url(#SVGID_316_);enable-background:new    ;}
	.st551{opacity:0.5;fill:url(#SVGID_317_);enable-background:new    ;}
	.st552{opacity:0.5;fill:#E8D8B6;enable-background:new    ;}
	.st553{fill:url(#SVGID_318_);}
	.st554{fill:url(#SVGID_319_);}
	.st555{fill:url(#SVGID_320_);}
	.st556{fill:url(#SVGID_321_);}
	.st557{fill:url(#SVGID_322_);}
	.st558{fill:url(#SVGID_323_);}
	.st559{fill:url(#SVGID_324_);}
	.st560{fill:url(#SVGID_325_);}
	.st561{fill:url(#SVGID_326_);}
	.st562{fill:url(#SVGID_327_);}
	.st563{fill:url(#SVGID_328_);}
	.st564{fill:url(#SVGID_329_);}
	.st565{fill:url(#SVGID_330_);}
	.st566{fill:url(#SVGID_331_);}
	.st567{fill:url(#SVGID_332_);}
	.st568{fill:url(#SVGID_333_);}
	.st569{fill:url(#SVGID_334_);}
	.st570{fill:url(#SVGID_335_);}
	.st571{fill:url(#SVGID_336_);}
	.st572{fill:url(#SVGID_337_);}
	.st573{fill:url(#SVGID_338_);}
	.st574{fill:url(#SVGID_339_);}
	.st575{fill:url(#SVGID_340_);}
	.st576{fill:url(#SVGID_341_);}
	.st577{fill:url(#SVGID_342_);}
	.st578{fill:url(#SVGID_343_);}
	.st579{fill:url(#SVGID_344_);}
	.st580{fill:url(#SVGID_345_);}
	.st581{fill:url(#SVGID_346_);}
	.st582{opacity:0.5;fill:url(#SVGID_347_);enable-background:new    ;}
	.st583{opacity:0.7;fill:#FDFCF5;enable-background:new    ;}
	.st584{fill:url(#SVGID_348_);}
	.st585{fill:url(#SVGID_349_);}
	.st586{fill:url(#SVGID_350_);}
	.st587{fill:url(#SVGID_351_);}
	.st588{fill:url(#SVGID_352_);}
	.st589{fill:url(#SVGID_353_);}
	.st590{fill:url(#SVGID_354_);}
	.st591{fill:url(#SVGID_355_);}
	.st592{fill:url(#SVGID_356_);}
	.st593{fill:url(#SVGID_357_);}
	.st594{fill:url(#SVGID_358_);}
	.st595{fill:url(#SVGID_359_);}
	.st596{fill:url(#SVGID_360_);}
	.st597{fill:#B0C7D2;}
	.st598{fill:url(#SVGID_361_);}
	.st599{fill:#AA7725;}
	.st600{fill:url(#SVGID_362_);}
	.st601{opacity:0.4;fill:url(#SVGID_363_);}
	.st602{fill:#5C5E4F;}
	.st603{fill:url(#SVGID_364_);}
	.st604{fill:#65470D;}
	.st605{fill:#6E7E86;}
	.st606{fill:url(#SVGID_365_);}
	.st607{fill:url(#SVGID_366_);}
	.st608{fill:url(#SVGID_367_);}
	.st609{fill:url(#SVGID_368_);}
	.st610{fill:url(#SVGID_369_);}
	.st611{fill:url(#SVGID_370_);}
	.st612{fill:url(#SVGID_371_);}
	.st613{fill:url(#SVGID_372_);}
	.st614{fill:url(#SVGID_373_);}
	.st615{fill:url(#SVGID_374_);}
	.st616{fill:url(#SVGID_375_);}
	.st617{fill:url(#SVGID_376_);}
	.st618{fill:url(#SVGID_377_);}
	.st619{fill:url(#SVGID_378_);}
	.st620{fill:#AD7676;}
	.st621{fill:url(#SVGID_379_);}
	.st622{fill:#E1CCCC;}
	.st623{opacity:0.5;fill:#AD7676;}
	.st624{fill:#452A2A;}
	.st625{opacity:0.6;fill:#9B5D5D;}
	.st626{fill:url(#SVGID_380_);}
	.st627{fill:url(#SVGID_381_);}
	.st628{opacity:0.3;fill:#FFEBCC;}
	.st629{fill:url(#SVGID_382_);}
	.st630{opacity:0.3;fill:#FFD191;}
	.st631{opacity:0.5;fill:#9B1B1D;}
	.st632{opacity:0.5;fill:#AB4735;}
	.st633{opacity:0.7;fill:#CAC9B7;}
	.st634{opacity:0.5;fill:#6E0909;}
	.st635{fill:#E0E0E0;}
	.st636{fill:#888888;}
	.st637{fill:url(#SVGID_383_);}
	.st638{opacity:0.4;fill:url(#SVGID_384_);enable-background:new    ;}
	.st639{opacity:0.5;fill:#969696;enable-background:new    ;}
	.st640{fill:#E5E5E5;}
	.st641{fill:#A4A4A4;}
	.st642{opacity:0.2;fill:#FFFFFF;enable-background:new    ;}
	.st643{fill:#F1F1F1;}
	.st644{fill:#868686;}
	.st645{opacity:0.7;fill:#868686;enable-background:new    ;}
	.st646{fill:url(#SVGID_385_);}
	.st647{fill:#E7CAC1;}
	.st648{fill:#E28481;}
	.st649{fill:#E6B3A9;}
	.st650{fill:#E9C69C;}
	.st651{fill:#E5A79E;}
	.st652{fill:#DADBDC;}
	.st653{opacity:0.6;fill:#E7CAC1;}
	.st654{fill:url(#SVGID_386_);}
	.st655{opacity:0.2;fill:#576065;}
	.st656{fill:url(#SVGID_387_);}
	.st657{opacity:0.6;fill:#B3E4FA;}
	.st658{fill:#8F9194;}
	.st659{fill:url(#SVGID_388_);}
	.st660{fill:#B3E4FA;}
	.st661{opacity:0.5;fill:#8F9194;}
	.st662{fill:#22292C;}
	.st663{fill:#323A3D;}
	.st664{opacity:0.6;fill:#668392;}
	.st665{fill:url(#SVGID_389_);}
	.st666{opacity:0.3;fill:#008FCF;}
	.st667{opacity:0.2;}
	.st668{fill:#008FCF;}
	.st669{opacity:0.7;fill:#1F80A7;}
	.st670{opacity:0.7;fill:#008FCF;}
	.st671{fill:url(#SVGID_390_);}
	.st672{opacity:0.9;fill:url(#SVGID_391_);enable-background:new    ;}
	.st673{fill:url(#SVGID_392_);}
	.st674{opacity:0.9;fill:url(#SVGID_393_);enable-background:new    ;}
	.st675{fill:url(#SVGID_394_);}
	.st676{opacity:0.9;fill:url(#SVGID_395_);enable-background:new    ;}
	.st677{fill:#595756;}
	.st678{fill:#474544;}
	.st679{fill:url(#SVGID_396_);}
	.st680{opacity:0.5;fill:#595756;enable-background:new    ;}
	.st681{opacity:0.9;fill:url(#SVGID_397_);enable-background:new    ;}
	.st682{opacity:0.9;fill:url(#SVGID_398_);enable-background:new    ;}
	.st683{fill:#272524;}
	.st684{fill:url(#SVGID_399_);}
	.st685{fill:url(#SVGID_400_);}
	.st686{fill:url(#SVGID_401_);}
	.st687{fill:url(#SVGID_402_);}
	.st688{fill:url(#SVGID_403_);}
	.st689{fill:url(#SVGID_404_);}
	.st690{fill:url(#SVGID_405_);}
	.st691{fill:url(#SVGID_406_);}
	.st692{fill:url(#SVGID_407_);}
	.st693{fill:url(#SVGID_408_);}
	.st694{fill:url(#SVGID_409_);}
	.st695{fill:url(#SVGID_410_);}
	.st696{fill:url(#SVGID_411_);}
	.st697{fill:url(#SVGID_412_);}
	.st698{opacity:0.9;fill:url(#SVGID_413_);enable-background:new    ;}
	.st699{fill:url(#SVGID_414_);}
	.st700{fill:url(#SVGID_415_);}
	.st701{fill:url(#SVGID_416_);}
	.st702{fill:url(#SVGID_417_);}
	.st703{fill:url(#SVGID_418_);}
	.st704{fill:url(#SVGID_419_);}
	.st705{fill:url(#SVGID_420_);}
	.st706{fill:#8C8C8C;}
	.st707{opacity:0.2;fill:#7B7A79;enable-background:new    ;}
	.st708{fill:#6A6867;}
	.st709{fill:#121111;}
	.st710{fill:url(#SVGID_421_);}
	.st711{fill:#353332;}
	.st712{fill:url(#SVGID_422_);}
	.st713{fill:url(#SVGID_423_);}
	.st714{fill:url(#SVGID_424_);}
	.st715{fill:url(#SVGID_425_);}
	.st716{fill:url(#SVGID_426_);}
	.st717{opacity:0.6;fill:url(#SVGID_427_);enable-background:new    ;}
	.st718{opacity:0.6;fill:url(#SVGID_428_);enable-background:new    ;}
	.st719{fill:#2A2726;}
	.st720{opacity:0.7;fill:url(#SVGID_429_);enable-background:new    ;}
	.st721{fill:#6E6D6C;}
	.st722{fill:#211E1D;}
	.st723{fill:#2D2A2A;}
	.st724{fill:url(#SVGID_430_);}
	.st725{fill:url(#SVGID_431_);}
	.st726{opacity:0.7;fill:url(#SVGID_432_);enable-background:new    ;}
	.st727{fill:url(#SVGID_433_);}
	.st728{fill:url(#SVGID_434_);}
	.st729{opacity:0.5;fill:url(#SVGID_435_);enable-background:new    ;}
	.st730{fill:url(#SVGID_436_);}
	.st731{fill:#393736;}
	.st732{fill:url(#SVGID_437_);}
	.st733{fill:url(#SVGID_438_);}
	.st734{fill:url(#SVGID_439_);}
	.st735{fill:url(#SVGID_440_);}
	.st736{opacity:0.5;fill:url(#SVGID_441_);enable-background:new    ;}
	.st737{fill:#252222;}
	.st738{opacity:0.5;fill:url(#SVGID_442_);enable-background:new    ;}
	.st739{fill:#7B7B7A;}
	.st740{fill:url(#SVGID_443_);}
	.st741{fill:url(#SVGID_444_);}
	.st742{fill:url(#SVGID_445_);}
	.st743{fill:url(#SVGID_446_);}
	.st744{fill:url(#SVGID_447_);}
	.st745{fill:url(#SVGID_448_);}
	.st746{fill:#201F1E;}
	.st747{fill:url(#SVGID_449_);}
	.st748{opacity:0.7;fill:#595756;enable-background:new    ;}
	.st749{fill:url(#SVGID_450_);}
	.st750{fill:url(#SVGID_451_);}
	.st751{fill:url(#SVGID_452_);}
	.st752{fill:url(#SVGID_453_);}
	.st753{fill:url(#SVGID_454_);}
	.st754{fill:url(#SVGID_455_);}
	.st755{fill:url(#SVGID_456_);}
	.st756{fill:url(#SVGID_457_);}
	.st757{fill:url(#SVGID_458_);}
</style>
<g>
	<g>
		<g>
			<path class="st283" d="M357.55,196.61c0,0-11.45,16.41-13.04,32.25c0,0-0.63,6.68,2.71,7.19c3.34,0.5,9.08-0.3,11.13-6.94
				c2.1-6.82,8.26-17.34,13.05-23.04L357.55,196.61z"/>
			<path class="st284" d="M352.73,223.93c-2.06-0.15-3.95,0.42-5.64,1.62c-0.73,0.52-1.72,1.37-2.47,2.33
				c-0.04,0.33-0.08,0.65-0.11,0.98c0,0-0.63,6.68,2.71,7.19c3.34,0.5,9.08-0.3,11.13-6.94c0.19-0.61,0.41-1.25,0.66-1.92
				C357.39,225.39,355.14,224.11,352.73,223.93z"/>
			<path class="st285" d="M354.11,215.07c0.77-1.89,1.76-3.65,2.82-5.37c-1.21-2.38-2.1-4.89-2.87-7.46
				c-3.17,5.56-7.58,14.53-9.15,23.67c2.19-1.26,4.54-2.06,6.99-2.72C352.32,220.4,353.05,217.66,354.11,215.07z"/>
			<path class="st284" d="M362.92,218.87c0.17-0.3,0.33-0.61,0.5-0.91c-3.47-3.94-8.04-6.97-12.94-8.82
				c-0.27,0.57-0.53,1.16-0.8,1.76C354.65,212.22,359.36,215.14,362.92,218.87z"/>
			<path class="st286" d="M357.55,196.61c0,0-1.01,1.45-2.47,3.89c0.22,2.76,0.98,5.47,2.36,7.87c0.82,1.42,2.07,3.1,2.19,4.79
				c0.12,1.59-5.56,12.89-5.92,17.59c-0.11,1.45-0.16,2.92-0.17,4.38c2-1,3.83-2.84,4.81-6.02c2.1-6.82,8.26-17.34,13.05-23.04
				L357.55,196.61z"/>
			<path class="st285" d="M346.11,247.01c1.11-1.2,2.58-2.21,4.16-2.67c1.68-0.49,3.67-0.87,5.36-0.2c0.81,0.32,1.44,0.92,2.07,1.49
				c0.53-5.59,0.53-15.66,0.53-15.66s-1.89-5.76-7.72-4.17c0,0-5.24,0.85-5.98,5.87c-0.5,3.41-0.14,10.84,1.07,15.92
				C345.78,247.38,345.95,247.18,346.11,247.01z"/>
			<path class="st285" d="M346.11,247.01c1.11-1.2,2.58-2.21,4.16-2.67c1.68-0.49,3.67-0.87,5.36-0.2c0.81,0.32,1.44,0.92,2.07,1.49
				c0.53-5.59,0.53-15.66,0.53-15.66s-1.89-5.76-7.72-4.17c0,0-5.24,0.85-5.98,5.87c-0.5,3.41-0.14,10.84,1.07,15.92
				C345.78,247.38,345.95,247.18,346.11,247.01z"/>
			<path class="st285" d="M358.24,229.97c0,0-1.18-3.59-4.55-4.32c0.11,0.09,0.21,0.18,0.32,0.28c1.44,1.42,2.03,3.09,1.98,5.08
				c-0.07,3.16-0.29,11.95-0.21,13.19c0.74,0.33,1.33,0.88,1.92,1.43C358.23,240.04,358.24,229.97,358.24,229.97z"/>
			<path class="st283" d="M350.27,244.34c0.47-0.14,0.97-0.27,1.48-0.37l0.64-16.38c0,0-0.83-1.02-3.65-0.07
				c0,0-3.61,1.09-3.98,5.97c-0.3,3.94,0.59,10.05,1.42,13.45C347.28,245.76,348.72,244.79,350.27,244.34z"/>
			<path class="st283" d="M357.74,245.18c-2.22-1.46-3.8-2.82-7.06-1.53c-1.55,0.61-3.06,1.5-4.33,2.57
				c-1.54,1.29-2.13,3.03-2.75,4.87c-0.68,2.01-1.27,4.13-1.08,6.27c0.11,1.26,0.49,2.49,0.99,3.65c0.33,0.76,0.83,2.33,1.82,2.44
				c0.45,0.05,0.71-0.24,0.84-0.64c0.18,0.29,0.36,0.58,0.56,0.83c0.61,0.8,1.49,1.06,2.29,0.39c0.19-0.16,0.3-0.36,0.36-0.58
				c0.25,0.27,0.51,0.5,0.78,0.66c1.25,0.72,2.05,0.04,1.88-1.3c-0.19-1.47-0.79-2.61-1.39-3.93c-0.28-0.62-0.38-1.27-0.37-1.94
				c0.04,0.13,0.08,0.25,0.13,0.37c0.65,1.84,1.94,4.61,3.96,5.17c1.92,0.53,1.79-2.09,1.41-3.13c-0.51-1.41-1.42-2.67-2-4.07
				c-0.45-1.1-0.9-2.38-0.78-3.59c0.09-0.87,0.85-2.93,1.96-1.62c0.35,0.41,0.5,1,0.58,1.52c0.19,1.17-0.62,4.66,1.07,5.05
				c0.86,0.2,1.56-0.75,1.9-1.41c1-1.94,0.96-4.42,0.6-6.52C358.92,247.63,358.22,246.21,357.74,245.18z"/>
			<path class="st287" d="M346.86,250.08c1.14-0.62,2.35-1.14,3.63-1.4c0.06-0.84,0.26-1.72,0.36-2.39
				c0.14-0.93,0.42-1.81,0.82-2.63c-0.27,0.08-0.55,0.16-0.85,0.28c-1.55,0.61-3.06,1.5-4.33,2.57c-1.54,1.29-2.13,3.03-2.75,4.87
				c-0.15,0.43-0.29,0.87-0.42,1.31C344.39,251.61,345.72,250.7,346.86,250.08z"/>
			<path class="st283" d="M370.5,188.51c0,0-9.05,1.45-14.45,5.99c-5.4,4.54,8.17,23.41,13.07,17.53
				C374.02,206.15,372.48,188.1,370.5,188.51z"/>
			<path class="st283" d="M360.75,192.37c0,0-5.18,1.3-5.33,5.52c-0.15,4.22,3.89,9.36,6.51,12.02c0,0-5.39-6.48-5.44-10.66
				C356.45,195.06,360.75,192.37,360.75,192.37z"/>
			<path class="st288" d="M349.74,251.14c0-0.06-0.09-0.01-0.09,0.03c-0.23,2.55-0.04,5.01,1.22,7.3c0.01,0.01,0.04-0.01,0.03-0.02
				C349.98,256.16,349.65,253.57,349.74,251.14z"/>
			<path class="st288" d="M349.66,263.54c-2.42-3.25-3.6-7.44-2.87-11.47c0-0.03-0.04,0-0.05,0.01c-1.15,3.57,0.04,8.95,2.81,11.55
				C349.6,263.68,349.7,263.6,349.66,263.54z"/>
			<path class="st283" d="M359.11,248.71c-0.19-1.07-0.89-2.5-1.37-3.53c-2.22-1.46-3.8-2.82-7.06-1.53c-0.01,0-0.02,0.01-0.03,0.01
				c1.92-0.34,4.58-0.71,4.98,1.52c0.15,0.82-0.05,2.75-1.15,2.9c-2.33,0.32-2.85,3.81-2.17,5.73c0.53,1.51,0.78,2.2,1.26,4.32
				c0.2,0.9-0.66,1.71-1.54,1.05c-1.01-0.77-1.48-2.04-1.84-3.22c-0.41-1.35-0.52-2.9-0.58-4.31c-0.46,1.81-0.36,3.95,0.13,5.73
				c0.23,0.85,0.99,2.81,0.19,3.58c-0.99,0.95-2.17-0.96-2.46-1.67c-0.76-1.84-0.82-3.65-0.85-5.55c-0.46,1.91-0.44,3.87,0.3,5.81
				c0.12,0.32,1.17,2.71-0.05,2.59c-1.32-0.12-2.12-2.42-2.45-3.47c-0.44-1.44-0.61-2.9-0.63-4.38c-0.3,1.59-0.26,3.25,0.15,4.82
				c0.24,0.92,0.91,1.93,0.78,2.9c-0.05,0.35-0.27,0.48-0.53,0.49c0.29,0.48,0.65,0.88,1.13,0.93c0.45,0.05,0.71-0.24,0.84-0.64
				c0.18,0.29,0.36,0.58,0.56,0.83c0.61,0.8,1.49,1.06,2.29,0.39c0.19-0.16,0.3-0.36,0.36-0.58c0.25,0.27,0.51,0.5,0.78,0.66
				c1.25,0.72,2.05,0.04,1.88-1.3c-0.19-1.47-0.79-2.61-1.39-3.93c-0.28-0.62-0.38-1.27-0.37-1.94c0.04,0.13,0.08,0.25,0.13,0.37
				c0.65,1.84,1.94,4.61,3.96,5.17c1.92,0.53,1.79-2.09,1.41-3.13c-0.51-1.41-1.42-2.67-2-4.07c-0.45-1.1-0.9-2.38-0.78-3.59
				c0.09-0.87,0.85-2.93,1.96-1.62c0.35,0.41,0.5,1,0.58,1.52c0.19,1.17-0.62,4.66,1.07,5.05c0.86,0.2,1.56-0.75,1.9-1.41
				C359.52,253.29,359.48,250.81,359.11,248.71z"/>
		</g>
		<path class="st288" d="M344.46,258.82c-0.37-1.23-0.59-2.57-0.64-3.91c-0.01,0.93,0.09,1.88,0.16,2.67
			c0.02,0.22,0.05,0.44,0.08,0.67c0.44,1.66,1.19,3.24,2.16,4.61c0.02,0.02,0.07-0.02,0.06-0.04
			C345.72,261.45,344.9,260.28,344.46,258.82z"/>
	</g>
	<g>
		<g>
			<path class="st283" d="M426.97,198c0,0,10.79,16.85,11.75,32.75c0,0,0.36,6.7-3,7.07c-3.36,0.37-9.06-0.66-10.84-7.38
				c-1.83-6.9-7.56-17.66-12.12-23.54L426.97,198z"/>
			<path class="st284" d="M430.69,225.49c2.07-0.07,3.93,0.58,5.57,1.85c0.7,0.55,1.67,1.43,2.38,2.43
				c0.03,0.33,0.05,0.65,0.07,0.98c0,0,0.36,6.7-3,7.07c-3.36,0.37-9.06-0.66-10.84-7.38c-0.16-0.62-0.36-1.27-0.58-1.94
				C425.98,226.76,428.28,225.57,430.69,225.49z"/>
			<path class="st285" d="M429.67,216.57c-0.69-1.92-1.62-3.72-2.61-5.48c1.3-2.33,2.29-4.8,3.16-7.34
				c2.94,5.68,6.99,14.82,8.2,24.01c-2.14-1.34-4.45-2.24-6.87-3C431.24,221.98,430.62,219.21,429.67,216.57z"/>
			<path class="st284" d="M420.71,220.02c-0.15-0.31-0.31-0.62-0.47-0.93c3.63-3.8,8.31-6.64,13.28-8.29
				c0.25,0.58,0.49,1.18,0.73,1.79C429.24,213.71,424.41,216.44,420.71,220.02z"/>
			<path class="st286" d="M426.97,198c0,0,0.95,1.48,2.31,3.99c-0.33,2.75-1.2,5.42-2.67,7.77c-0.87,1.38-2.19,3.02-2.38,4.7
				c-0.18,1.59,5.04,13.1,5.22,17.81c0.06,1.45,0.04,2.92,0,4.38c-1.96-1.08-3.71-2.99-4.57-6.2c-1.83-6.9-7.56-17.66-12.12-23.54
				L426.97,198z"/>
			<path class="st285" d="M436.39,248.81c-1.06-1.25-2.49-2.31-4.05-2.83c-1.66-0.56-3.63-1.02-5.35-0.41
				c-0.82,0.29-1.48,0.86-2.13,1.41c-0.3-5.6,0.09-15.67,0.09-15.67s2.12-5.68,7.88-3.86c0,0,5.21,1.06,5.74,6.1
				c0.36,3.43-0.29,10.84-1.71,15.87C436.7,249.19,436.54,248.99,436.39,248.81z"/>
			<path class="st285" d="M436.39,248.81c-1.06-1.25-2.49-2.31-4.05-2.83c-1.66-0.56-3.63-1.02-5.35-0.41
				c-0.82,0.29-1.48,0.86-2.13,1.41c-0.3-5.6,0.09-15.67,0.09-15.67s2.12-5.68,7.88-3.86c0,0,5.21,1.06,5.74,6.1
				c0.36,3.43-0.29,10.84-1.71,15.87C436.7,249.19,436.54,248.99,436.39,248.81z"/>
			<path class="st285" d="M424.95,231.3c0,0,1.32-3.54,4.72-4.13c-0.11,0.08-0.22,0.17-0.33,0.27c-1.49,1.36-2.15,3-2.18,5
				c-0.05,3.17-0.19,11.95-0.32,13.19c-0.75,0.3-1.36,0.83-1.98,1.35C424.56,241.36,424.95,231.3,424.95,231.3z"/>
			<path class="st283" d="M432.34,245.97c-0.47-0.16-0.96-0.31-1.46-0.43l0.01-16.39c0,0,0.87-0.99,3.65,0.07
				c0,0,3.56,1.23,3.74,6.12c0.14,3.95-0.99,10.02-1.95,13.38C435.27,247.52,433.86,246.49,432.34,245.97z"/>
			<path class="st283" d="M424.84,246.52c2.28-1.37,3.91-2.66,7.12-1.25c1.52,0.67,3,1.62,4.23,2.74c1.49,1.35,2,3.11,2.56,4.98
				c0.6,2.03,1.1,4.18,0.83,6.31c-0.16,1.26-0.59,2.47-1.14,3.61c-0.36,0.75-0.93,2.29-1.92,2.36c-0.45,0.03-0.7-0.26-0.82-0.67
				c-0.19,0.29-0.39,0.56-0.59,0.81c-0.64,0.77-1.53,1-2.3,0.3c-0.19-0.17-0.29-0.37-0.34-0.6c-0.26,0.26-0.53,0.48-0.8,0.63
				c-1.28,0.67-2.05-0.04-1.83-1.38c0.24-1.46,0.89-2.58,1.54-3.87c0.31-0.61,0.43-1.26,0.45-1.92c-0.05,0.12-0.09,0.25-0.14,0.37
				c-0.73,1.81-2.13,4.53-4.16,5.01c-1.94,0.45-1.71-2.16-1.28-3.18c0.57-1.39,1.53-2.61,2.16-3.99c0.49-1.08,1-2.34,0.92-3.55
				c-0.06-0.87-0.74-2.96-1.89-1.7c-0.36,0.4-0.54,0.98-0.64,1.49c-0.24,1.16,0.44,4.68-1.27,5.01c-0.87,0.17-1.53-0.81-1.85-1.49
				c-0.93-1.97-0.79-4.45-0.33-6.54C423.56,248.92,424.32,247.53,424.84,246.52z"/>
			<path class="st287" d="M435.51,251.85c-1.12-0.67-2.3-1.23-3.57-1.54c-0.03-0.84-0.19-1.72-0.26-2.4
				c-0.1-0.94-0.35-1.82-0.72-2.67c0.27,0.09,0.55,0.19,0.84,0.32c1.52,0.67,3,1.62,4.23,2.74c1.49,1.35,2,3.11,2.56,4.98
				c0.13,0.44,0.25,0.88,0.37,1.33C437.92,253.47,436.63,252.51,435.51,251.85z"/>
			<path class="st283" d="M414.35,189.38c0,0,8.98,1.81,14.2,6.56c5.22,4.75-9.1,23.07-13.76,17
				C410.13,206.87,412.39,188.9,414.35,189.38z"/>
			<path class="st283" d="M423.94,193.63c0,0,5.12,1.5,5.1,5.73c-0.02,4.22-4.26,9.2-6.98,11.75c0,0,5.65-6.26,5.86-10.44
				C428.12,196.49,423.94,193.63,423.94,193.63z"/>
			<path class="st288" d="M432.6,252.79c0-0.06,0.09,0,0.09,0.04c0.13,2.56-0.16,5.01-1.51,7.24c-0.01,0.01-0.03-0.01-0.03-0.02
				C432.15,257.8,432.59,255.23,432.6,252.79z"/>
			<path class="st288" d="M432.18,265.19c2.55-3.15,3.9-7.29,3.33-11.35c0-0.03,0.04,0,0.05,0.02c1,3.61-0.4,8.94-3.27,11.43
				C432.24,265.33,432.14,265.24,432.18,265.19z"/>
			<path class="st283" d="M423.33,249.99c0.23-1.07,0.99-2.46,1.51-3.47c2.28-1.37,3.91-2.66,7.12-1.25c0.01,0,0.02,0.01,0.03,0.01
				c-1.9-0.42-4.54-0.89-5.04,1.32c-0.18,0.81-0.06,2.75,1.04,2.95c2.32,0.41,2.69,3.92,1.94,5.81c-0.59,1.49-0.87,2.17-1.43,4.27
				c-0.24,0.89,0.59,1.74,1.5,1.11c1.04-0.72,1.56-1.97,1.97-3.14c0.46-1.33,0.64-2.88,0.75-4.29c0.39,1.83,0.2,3.96-0.36,5.72
				c-0.26,0.84-1.1,2.77-0.33,3.57c0.95,0.99,2.21-0.88,2.53-1.57c0.84-1.81,0.97-3.62,1.07-5.51c0.38,1.93,0.29,3.88-0.54,5.79
				c-0.14,0.32-1.28,2.66-0.06,2.59c1.33-0.07,2.22-2.33,2.58-3.37c0.5-1.42,0.73-2.87,0.81-4.35c0.24,1.6,0.13,3.26-0.35,4.81
				c-0.28,0.91-0.99,1.89-0.9,2.86c0.03,0.35,0.25,0.49,0.51,0.51c-0.31,0.47-0.69,0.85-1.17,0.89c-0.45,0.03-0.7-0.26-0.82-0.67
				c-0.19,0.29-0.39,0.56-0.59,0.81c-0.64,0.77-1.53,1-2.3,0.3c-0.19-0.17-0.29-0.37-0.34-0.6c-0.26,0.26-0.53,0.48-0.8,0.63
				c-1.28,0.67-2.05-0.04-1.83-1.38c0.24-1.46,0.89-2.58,1.54-3.87c0.31-0.61,0.43-1.26,0.45-1.92c-0.05,0.12-0.09,0.25-0.14,0.37
				c-0.73,1.81-2.13,4.53-4.16,5.01c-1.94,0.45-1.71-2.16-1.28-3.18c0.57-1.39,1.53-2.61,2.16-3.99c0.49-1.08,1-2.34,0.92-3.55
				c-0.06-0.87-0.74-2.96-1.89-1.7c-0.36,0.4-0.54,0.98-0.64,1.49c-0.24,1.16,0.44,4.68-1.27,5.01c-0.87,0.17-1.53-0.81-1.85-1.49
				C422.74,254.55,422.88,252.07,423.33,249.99z"/>
		</g>
		<path class="st288" d="M437.56,260.68c0.42-1.21,0.69-2.55,0.8-3.88c-0.02,0.93-0.16,1.87-0.27,2.66
			c-0.03,0.22-0.07,0.44-0.11,0.66c-0.51,1.64-1.32,3.19-2.34,4.52c-0.02,0.02-0.07-0.02-0.06-0.05
			C436.2,263.26,437.06,262.12,437.56,260.68z"/>
	</g>
	<path class="st283" d="M366.2,235.31c0,0-2.1,2.61-2.11,6.93c-0.01,4.33,22.34,12.93,28.12,14.21c5.78,1.28,26.23-9.8,26.16-14.29
		c-0.08-4.49-0.72-6.39-3.43-6.54C412.22,235.48,366.2,235.31,366.2,235.31z"/>
	<path class="st283" d="M368.34,244.7c-0.33-3.15-0.16-6.26-0.07-9.38c-1.32-0.01-2.07-0.01-2.07-0.01s-2.1,2.61-2.11,6.93
		c0,1.23,1.8,2.8,4.51,4.45C368.49,246.03,368.41,245.36,368.34,244.7z"/>
	<path class="st283" d="M414.94,235.63c-0.28-0.02-1.03-0.03-2.15-0.05c0.01,0.06,0.02,0.12,0.02,0.18c0.18,1.81,0.3,3.66,0.24,5.48
		c-0.08,2.41-0.38,4.8-0.56,7.19c3.45-2.35,5.91-4.71,5.88-6.27C418.29,237.68,417.65,235.78,414.94,235.63z"/>
	<path class="st289" d="M418.32,191.97c-1.85-5.31-19.77-5.79-19.77-5.79l-5.93,0.02l-5.92-0.26c0,0-17.92-0.23-19.98,5
		c-2.06,5.23-2.66,43.16-0.41,46.37c1.54,2.2,9.84,4.97,18.96,6.36c2.05,0.31,3.94,0.35,6.01,0.5c2.07-0.07,4.36-0.02,6.42-0.26
		c9.17-1.03,17.57-3.47,19.2-5.6C419.26,235.21,420.18,197.28,418.32,191.97z"/>
	<path class="st283" d="M416.9,191.65c-1.75-5.01-18.67-5.47-18.67-5.47l-5.6,0.02l-5.59-0.25c0,0-16.93-0.22-18.88,4.72
		c-1.95,4.94-2.51,40.78-0.39,43.81c1.46,2.08,9.3,4.69,17.91,6.01c1.94,0.3,3.73,0.33,5.67,0.48c1.95-0.07,4.12-0.02,6.06-0.24
		c8.66-0.98,16.6-3.28,18.14-5.29C417.79,232.49,418.65,196.66,416.9,191.65z"/>
	<path class="st290" d="M392.64,240.98c-7.13,0.07-14.38-1.7-20.09-6.14c-3.57-2.78-5.94-6.19-7.59-10.03
		c0.16,6.39,0.6,11.42,1.35,12.5c1.54,2.2,9.84,4.97,18.96,6.36c2.05,0.31,3.94,0.35,6.01,0.5c2.07-0.07,4.36-0.02,6.42-0.26
		c9.17-1.03,17.57-3.47,19.2-5.6c0.62-0.82,1.15-4.06,1.55-8.47C412.5,237.41,402.11,240.88,392.64,240.98z"/>
	<path class="st291" d="M392.74,196.15c5.05-0.01,10.12-0.98,14.89-2.64c2.7-0.94,5.92-2.01,7.96-4.16
		c-5.52-2.86-17.03-3.17-17.03-3.17l-5.93,0.02l-5.92-0.26c0,0-10.71-0.14-16.53,2.22C375.93,193.87,384.84,196.17,392.74,196.15z"
		/>
	<g>
		<g>
			<path class="st283" d="M376,176.18c-0.08,3.82-3.23,6.86-7.06,6.78l0,0c-3.82-0.08-6.86-3.23-6.78-7.06l0.1-4.85
				c0.08-3.82,3.24-6.86,7.06-6.78l0,0c3.82,0.08,6.86,3.23,6.78,7.06L376,176.18z"/>
			<path class="st292" d="M375.31,175.92c-0.07,3.44-2.91,6.17-6.35,6.1l0,0c-3.44-0.07-6.17-2.91-6.1-6.35l0.09-4.37
				c0.07-3.44,2.91-6.17,6.35-6.1l0,0c3.44,0.07,6.17,2.91,6.11,6.35L375.31,175.92z"/>
			<g>
				<path class="st293" d="M367.33,168.79c-0.02,0.78-0.66,1.4-1.44,1.38c-0.78-0.02-1.4-0.66-1.38-1.44
					c0.02-0.78,0.66-1.4,1.44-1.38C366.72,167.37,367.34,168.02,367.33,168.79z"/>
				<path class="st185" d="M366.05,168.26c0,0.21-0.18,0.38-0.39,0.38c-0.21,0-0.38-0.18-0.38-0.39c0-0.21,0.18-0.38,0.39-0.38
					C365.88,167.88,366.05,168.05,366.05,168.26z"/>
				<path class="st185" d="M365.26,169.05c0,0.1-0.08,0.17-0.18,0.17c-0.1,0-0.17-0.08-0.17-0.18c0-0.1,0.08-0.17,0.18-0.17
					C365.19,168.88,365.27,168.96,365.26,169.05z"/>
			</g>
			<g>
				<path class="st293" d="M366.95,174.73c-0.01,0.78-0.66,1.4-1.44,1.38c-0.78-0.02-1.4-0.66-1.38-1.44
					c0.02-0.78,0.66-1.4,1.44-1.38C366.34,173.3,366.96,173.95,366.95,174.73z"/>
				<path class="st185" d="M365.67,174.19c0,0.21-0.18,0.38-0.39,0.38c-0.21,0-0.38-0.18-0.38-0.39c0-0.21,0.18-0.38,0.39-0.38
					C365.5,173.81,365.67,173.98,365.67,174.19z"/>
				<path class="st185" d="M364.89,174.98c0,0.1-0.08,0.17-0.18,0.17c-0.1,0-0.17-0.08-0.17-0.18c0-0.1,0.08-0.17,0.18-0.17
					C364.81,174.81,364.89,174.89,364.89,174.98z"/>
			</g>
			<path class="st291" d="M369.31,164.27c-0.75-0.01-1.47,0.09-2.15,0.3c-1.02,3.03-1.27,6.25-1.11,9.46
				c0.09,1.89,0.17,3.78,0.37,5.66c0.1,0.93,0.17,1.91,0.33,2.87c0.68,0.24,1.41,0.39,2.18,0.4c3.82,0.08,6.98-2.96,7.06-6.78
				l0.1-4.85C376.17,167.5,373.13,164.35,369.31,164.27z"/>
		</g>
		<g>
			<path class="st283" d="M409.65,176.85c-0.08,3.82,2.96,6.98,6.78,7.05l0,0c3.82,0.08,6.98-2.96,7.06-6.78l0.1-4.85
				c0.08-3.82-2.96-6.98-6.78-7.06l0,0c-3.82-0.08-6.98,2.96-7.06,6.78L409.65,176.85z"/>
			<path class="st292" d="M410.34,176.62c-0.07,3.44,2.66,6.28,6.11,6.35l0,0c3.44,0.07,6.28-2.67,6.35-6.1l0.09-4.37
				c0.07-3.44-2.66-6.28-6.1-6.35l0,0c-3.44-0.07-6.28,2.66-6.35,6.1L410.34,176.62z"/>
			<g>
				<path class="st293" d="M418.61,169.82c-0.02,0.78,0.6,1.43,1.38,1.44c0.78,0.02,1.42-0.6,1.44-1.38
					c0.02-0.78-0.6-1.42-1.38-1.44C419.27,168.42,418.62,169.04,418.61,169.82z"/>
				<path class="st185" d="M419.91,169.34c0,0.21,0.16,0.39,0.38,0.39c0.21,0,0.39-0.16,0.39-0.38c0-0.21-0.16-0.39-0.37-0.39
					C420.09,168.96,419.91,169.13,419.91,169.34z"/>
				<path class="st185" d="M420.66,170.16c0,0.1,0.08,0.18,0.17,0.18c0.1,0,0.18-0.08,0.18-0.17c0-0.1-0.08-0.18-0.17-0.18
					C420.74,169.98,420.66,170.06,420.66,170.16z"/>
			</g>
			<g>
				<path class="st293" d="M418.75,175.76c-0.02,0.78,0.6,1.42,1.38,1.44c0.78,0.02,1.42-0.6,1.44-1.38
					c0.02-0.78-0.6-1.42-1.38-1.44C419.41,174.36,418.77,174.98,418.75,175.76z"/>
				<path class="st185" d="M420.05,175.28c0,0.21,0.16,0.39,0.38,0.39c0.21,0,0.39-0.16,0.39-0.38c0-0.21-0.16-0.39-0.38-0.39
					C420.23,174.9,420.05,175.07,420.05,175.28z"/>
				<path class="st185" d="M420.8,176.1c0,0.1,0.08,0.18,0.17,0.18c0.1,0,0.18-0.08,0.18-0.17c0-0.1-0.08-0.18-0.17-0.18
					C420.88,175.93,420.8,176,420.8,176.1z"/>
			</g>
			<path class="st291" d="M416.8,165.22c0.75,0.01,1.46,0.15,2.13,0.38c0.9,3.07,1.02,6.3,0.73,9.49c-0.17,1.88-0.32,3.77-0.6,5.64
				c-0.14,0.93-0.25,1.91-0.45,2.86c-0.69,0.22-1.43,0.33-2.19,0.32c-3.82-0.08-6.86-3.23-6.78-7.05l0.1-4.85
				C409.82,168.18,412.98,165.14,416.8,165.22z"/>
		</g>
		<g>
			<path class="st283" d="M396.6,144.33c-1.06-0.15-2.16-0.24-3.29-0.27c-1.13-0.01-2.23,0.04-3.3,0.14
				c-14.01,1.42-22.2,13.01-22.44,24.92c-0.27,13.51,1.18,19.06,13.36,23.17c2.64,0.89,7.08,1.82,11.61,1.72
				c4.52,0.28,8.55-0.48,11.22-1.26c12.33-3.62,14-9.11,14.27-22.62C418.27,158.22,410.54,146.31,396.6,144.33z"/>
			<path class="st285" d="M368.77,182.27c1.58,4.71,5.03,7.61,12.17,10.02c2.64,0.89,7.08,1.82,11.61,1.72
				c4.52,0.28,8.55-0.48,11.22-1.26c7.7-2.26,11.24-5.25,12.89-10.46C401.54,176.56,384.05,177.13,368.77,182.27z"/>
			<path class="st294" d="M371.27,162.49c0.93,0.32,1.15-0.98,1.53-1.67c0.89-1.63,1.86-3.22,3.01-4.68
				c2.1-2.67,4.59-4.93,7.59-6.53c-0.54-1.09-1.25-2.05-2.02-2.97c-6.19,3.04-10.47,8.48-12.49,14.67
				C369.66,161.77,370.44,162.21,371.27,162.49z"/>
			<path class="st294" d="M410.78,157.21c0.62,1.16,1.2,2.33,1.75,3.52c0.03-0.02,0.05-0.04,0.08-0.06c0.98-0.77,2-1.49,2.99-2.25
				c-1.49-3.24-3.64-6.18-6.42-8.54c-0.68,0.73-1.38,1.44-2.05,2.17C408.45,153.68,409.76,155.31,410.78,157.21z"/>
			<path class="st291" d="M413.94,171.42c-0.22,11.11-9.88,19.92-21.56,19.69c-11.69-0.23-20.98-9.43-20.76-20.53
				c0.22-11.11,9.88-19.92,21.56-19.69C404.86,151.12,414.16,160.31,413.94,171.42z"/>
			<g>
				
					<radialGradient id="SVGID_1_" cx="4477.7417" cy="-8730.7715" r="71.5437" gradientTransform="matrix(0.361 7.200000e-03 -7.200000e-03 0.361 -1293.6346 3290.2734)" gradientUnits="userSpaceOnUse">
					<stop  offset="0.1486" style="stop-color:#21687E"/>
					<stop  offset="0.491" style="stop-color:#023F5F"/>
					<stop  offset="0.9801" style="stop-color:#000000"/>
				</radialGradient>
				<path class="st0" d="M412.68,170.18c-0.21,10.44-9.28,18.72-20.26,18.5c-10.98-0.22-19.71-8.86-19.5-19.29
					c0.21-10.44,9.28-18.72,20.26-18.5C404.16,151.1,412.89,159.74,412.68,170.18z"/>
				
					<radialGradient id="SVGID_2_" cx="4494.5518" cy="-8813.9834" r="142.937" gradientTransform="matrix(0.361 7.200000e-03 -7.200000e-03 0.361 -1293.6346 3290.2734)" gradientUnits="userSpaceOnUse">
					<stop  offset="0.2849" style="stop-color:#21687E"/>
					<stop  offset="0.4225" style="stop-color:#0D3B59"/>
					<stop  offset="0.5885" style="stop-color:#05294A"/>
					<stop  offset="0.7076" style="stop-color:#031B31"/>
					<stop  offset="0.8978" style="stop-color:#01070D"/>
					<stop  offset="1" style="stop-color:#000000"/>
				</radialGradient>
				<path class="st1" d="M410.7,161.58c0.98,2.51,1.4,5.22,1.02,8.13c-0.9,6.74-6.28,11.95-12.69,13.66
					c-5.84,1.56-13.11,1.32-18.37-1.97c-7.98-4.99-8.47-14.77-4.35-22.21c-2.07,2.91-3.31,6.41-3.39,10.19
					c-0.21,10.44,8.52,19.07,19.5,19.29c10.98,0.22,20.05-8.06,20.26-18.5C412.74,167.1,412.02,164.18,410.7,161.58z"/>
				
					<radialGradient id="SVGID_3_" cx="4431.8496" cy="-8773.8564" r="89.8527" gradientTransform="matrix(0.361 7.200000e-03 -7.200000e-03 0.361 -1293.6346 3290.2734)" gradientUnits="userSpaceOnUse">
					<stop  offset="0.2851" style="stop-color:#FFFFFF"/>
					<stop  offset="0.6912" style="stop-color:#6C6C6C"/>
					<stop  offset="1" style="stop-color:#000000"/>
				</radialGradient>
				<path class="st2" d="M375.57,173.2c0.13,1.11,0.33,2.21,0.62,3.27c0.25,0.89,0.56,1.75,0.92,2.59c0.85,0.77,1.75,1.5,2.7,2.2
					c1.52,1.12,3.11,2.2,4.8,3.04c-1.58-2.62-2.62-5.58-3.1-8.62C379.5,174.92,377.48,174.18,375.57,173.2z"/>
				
					<radialGradient id="SVGID_4_" cx="4431.853" cy="-8773.8564" r="89.8522" gradientTransform="matrix(0.361 7.200000e-03 -7.200000e-03 0.361 -1293.6346 3290.2734)" gradientUnits="userSpaceOnUse">
					<stop  offset="0.2851" style="stop-color:#FFFFFF"/>
					<stop  offset="0.6912" style="stop-color:#6C6C6C"/>
					<stop  offset="1" style="stop-color:#000000"/>
				</radialGradient>
				<path class="st3" d="M391.8,152.48c-5.63,0.62-11.24,3.48-14.03,8.6c-1.57,2.87-2.34,6.2-2.35,9.52
					c1.78,0.76,3.66,1.36,5.46,1.96c0.11,0.04,0.23,0.07,0.34,0.11c-0.06-1.7,0.05-3.4,0.36-5.05c0.85-4.59,3.1-8.93,6.91-11.74
					c2.09-1.54,4.52-2.76,7.07-3.47C394.3,152.33,393.04,152.35,391.8,152.48z"/>
			</g>
		</g>
	</g>
	<path class="st299" d="M406.2,201.26l-3.85-0.08l-20.4-0.41l-3.85-0.08c-3.81-0.08-4.5,2.86-5,5.19l-0.27,13.56l-0.21,10.63
		l-0.01,0.39l0.08,0c0.41,2.27,1.11,4.92,4.72,4.99l3.85,0.08l20.4,0.41l3.85,0.08c3.6,0.07,4.41-2.54,4.91-4.8l0.08,0l0.01-0.39
		l0.21-10.63l0.27-13.56C410.58,204.29,410.01,201.33,406.2,201.26z"/>
	<path class="st283" d="M405.54,201.8l-3.62-0.07l-19.2-0.38l-3.62-0.07c-3.59-0.07-4.23,2.69-4.7,4.88l-0.25,12.76l-0.2,10
		l-0.01,0.37l0.07,0c0.39,2.14,1.05,4.63,4.44,4.7l3.62,0.07l19.2,0.38l3.62,0.07c3.39,0.07,4.15-2.39,4.62-4.51l0.07,0l0.01-0.37
		l0.2-10l0.25-12.76C409.67,204.65,409.13,201.87,405.54,201.8z"/>
	<g>
		<path class="st292" d="M406.19,223.4l-0.84-0.02l-4.44-0.09l-0.84-0.02c-0.83-0.02-0.98,0.62-1.09,1.13l-0.06,2.95l-0.05,2.31
			l0,0.09h0.02c0.09,0.49,0.24,1.07,1.03,1.09l0.84,0.02l4.44,0.09l0.84,0.02c0.79,0.02,0.96-0.55,1.07-1.04l0.02,0l0-0.09
			l0.05-2.31l0.06-2.95C407.14,224.06,407.02,223.41,406.19,223.4z"/>
		<path class="st283" d="M405.77,223.76l-0.72-0.01l-3.84-0.08l-0.72-0.01c-0.72-0.01-0.85,0.54-0.94,0.98l-0.05,2.55l-0.04,2
			l0,0.07l0.01,0c0.08,0.43,0.21,0.93,0.89,0.94l0.72,0.01l3.84,0.08l0.72,0.01c0.68,0.01,0.83-0.48,0.93-0.9l0.02,0l0-0.07l0.04-2
			l0.05-2.55C406.59,224.33,406.48,223.77,405.77,223.76z"/>
		<path class="st283" d="M405.22,224.23l-0.58-0.01l-3.06-0.06l-0.58-0.01c-0.57-0.01-0.67,0.15-0.74,0.27l-0.02,0.74l-0.01,0.58
			l0,0.02l0.01,0c0.06,0.12,0.18,0.27,0.72,0.28l0.58,0.01l3.06,0.06l0.58,0.01c0.54,0.01,0.66-0.13,0.73-0.25h0.01l0-0.02
			l0.01-0.58l0.01-0.74C405.88,224.4,405.79,224.24,405.22,224.23z"/>
		<path class="st283" d="M405.51,204.31l-1.63-0.03l-8.65-0.17l-1.63-0.03c-0.37-0.01-1.44-0.03-1.8-0.04l-1.63-0.03l-8.65-0.17
			l-1.63-0.03c-1.62-0.03-1.9,0.77-2.1,1.4l-0.07,3.71l-0.06,2.91l0,0.11l0.03,0c0.18,0.62,0.49,1.35,2.02,1.38l1.63,0.03l8.65,0.17
			l1.63,0.03c0.37,0.01,1.44,0.03,1.8,0.04l1.63,0.03l8.65,0.17l1.63,0.03c1.53,0.03,1.86-0.68,2.07-1.3h0.03l0-0.11l0.06-2.91
			l0.07-3.71C407.37,205.16,407.12,204.35,405.51,204.31z"/>
		<path class="st292" d="M397.19,223.22l-0.84-0.02l-4.44-0.09l-0.84-0.02c-0.83-0.02-0.98,0.62-1.09,1.13l-0.06,2.95l-0.05,2.31
			l0,0.09h0.02c0.09,0.49,0.24,1.07,1.03,1.09l0.84,0.02l4.44,0.09l0.84,0.02c0.79,0.02,0.96-0.55,1.07-1.04h0.02l0-0.08l0.05-2.31
			l0.06-2.95C398.14,223.88,398.02,223.23,397.19,223.22z"/>
		<path class="st283" d="M396.77,223.58l-0.72-0.01l-3.84-0.08l-0.72-0.01c-0.72-0.01-0.85,0.54-0.94,0.98l-0.05,2.55l-0.04,2
			l0,0.07l0.01,0c0.08,0.43,0.21,0.93,0.89,0.94l0.72,0.01l3.84,0.08l0.72,0.01c0.68,0.01,0.83-0.48,0.93-0.9l0.02,0l0-0.07l0.04-2
			l0.05-2.55C397.59,224.15,397.48,223.59,396.77,223.58z"/>
		<path class="st283" d="M396.22,224.05l-0.58-0.01l-3.06-0.06l-0.58-0.01c-0.57-0.01-0.67,0.15-0.74,0.27l-0.01,0.74l-0.01,0.58
			l0,0.02l0.01,0c0.07,0.12,0.18,0.27,0.72,0.28l0.58,0.01l3.06,0.06l0.58,0.01c0.54,0.01,0.66-0.13,0.73-0.25h0.01l0-0.02
			l0.01-0.58l0.01-0.74C396.88,224.22,396.79,224.06,396.22,224.05z"/>
		<g>
			<path class="st285" d="M395.8,218.38c-0.02,1.03-0.87,1.85-1.91,1.83l0,0c-1.03-0.02-1.85-0.87-1.83-1.91l0,0
				c0.02-1.03,0.88-1.86,1.91-1.84l0,0C394.99,216.49,395.82,217.34,395.8,218.38L395.8,218.38z"/>
			<path class="st285" d="M400.97,218.48c-0.02,1.03-0.88,1.85-1.91,1.83l0,0c-1.03-0.02-1.85-0.88-1.83-1.91l0,0
				c0.02-1.03,0.88-1.86,1.91-1.83l0,0C400.17,216.59,400.99,217.45,400.97,218.48L400.97,218.48z"/>
			<path class="st285" d="M406.15,218.58c-0.02,1.03-0.87,1.86-1.91,1.83l0,0c-1.03-0.02-1.86-0.88-1.83-1.91l0,0
				c0.02-1.03,0.87-1.86,1.91-1.84l0,0C405.35,216.69,406.17,217.55,406.15,218.58L406.15,218.58z"/>
		</g>
		
			<rect x="375.14" y="217.74" transform="matrix(0.0199 -0.9998 0.9998 0.0199 152.2068 601.5126)" class="st285" width="15.53" height="10.77"/>
		<g>
			<g>
				
					<rect x="378.46" y="216.65" transform="matrix(0.0197 -0.9998 0.9998 0.0197 154.3857 593.5699)" class="st283" width="2.82" height="2.82"/>
				
					<rect x="381.59" y="216.71" transform="matrix(0.0201 -0.9998 0.9998 0.0201 157.2133 596.6541)" class="st283" width="2.82" height="2.82"/>
				
					<rect x="384.72" y="216.77" transform="matrix(0.0198 -0.9998 0.9998 0.0198 160.3465 599.9199)" class="st283" width="2.82" height="2.82"/>
				
					<rect x="378.4" y="219.96" transform="matrix(0.0201 -0.9998 0.9998 0.0201 150.8586 596.6638)" class="st283" width="2.82" height="2.82"/>
				
					<rect x="381.52" y="220.03" transform="matrix(0.0196 -0.9998 0.9998 0.0196 154.0364 599.959)" class="st283" width="2.82" height="2.82"/>
				
					<rect x="384.65" y="220.09" transform="matrix(0.0198 -0.9998 0.9998 0.0198 156.9645 603.1018)" class="st283" width="2.82" height="2.82"/>
			</g>
			<g>
				
					<rect x="378.33" y="223.34" transform="matrix(0.0201 -0.9998 0.9998 0.0201 147.4184 599.9037)" class="st283" width="2.82" height="2.82"/>
				
					<rect x="381.46" y="223.4" transform="matrix(0.0198 -0.9998 0.9998 0.0198 150.5179 603.1527)" class="st283" width="2.82" height="2.82"/>
				
					<rect x="384.59" y="223.46" transform="matrix(0.0198 -0.9998 0.9998 0.0198 153.5245 606.343)" class="st283" width="2.82" height="2.82"/>
				
					<rect x="378.26" y="226.65" transform="matrix(0.0201 -0.9998 0.9998 0.0201 144.0345 603.0848)" class="st283" width="2.82" height="2.82"/>
				
					<rect x="381.39" y="226.72" transform="matrix(0.0199 -0.9998 0.9998 0.0199 147.1131 606.3207)" class="st283" width="2.82" height="2.82"/>
				
					<rect x="384.52" y="226.78" transform="matrix(0.0198 -0.9998 0.9998 0.0198 150.144 609.527)" class="st283" width="2.82" height="2.82"/>
			</g>
		</g>
		
			<linearGradient id="SVGID_5_" gradientUnits="userSpaceOnUse" x1="296.682" y1="198.496" x2="296.682" y2="211.7603" gradientTransform="matrix(0.9998 0.0199 -0.0199 0.9998 102.9007 -2.714)">
			<stop  offset="0.1486" style="stop-color:#21687E"/>
			<stop  offset="0.491" style="stop-color:#023F5F"/>
			<stop  offset="0.9801" style="stop-color:#000000"/>
		</linearGradient>
		<path class="st4" d="M405.23,205.45l-1.24-0.02l-6.57-0.13l-1.24-0.02c-0.28-0.01-1.09-0.02-1.37-0.03l-1.24-0.02l-6.57-0.13
			l-1.24-0.03c-1.23-0.02-1.44,0.58-1.6,1.07l-0.06,2.82l-0.04,2.21l0,0.08l0.03,0c0.14,0.47,0.37,1.02,1.53,1.05l1.24,0.02
			l6.56,0.13l1.24,0.02c0.28,0.01,1.09,0.02,1.37,0.03l1.24,0.02l6.57,0.13l1.24,0.03c1.16,0.02,1.41-0.52,1.57-0.99l0.02,0l0-0.08
			l0.04-2.21l0.06-2.82C406.65,206.09,406.46,205.48,405.23,205.45z"/>
		<path class="st301" d="M394.69,208.85c2.82,0,5.67-0.15,8.42-0.83c0.96-0.24,2-0.49,2.95-0.91l0.01-0.39
			c-0.13-0.46-0.3-1.03-1.45-1.06l-18.22-0.36c-1.15-0.02-1.35,0.55-1.5,1l-0.01,0.51C387.48,208.88,391.55,208.86,394.69,208.85z"
			/>
	</g>
	<g>
		<path class="st302" d="M388.08,299.14c-0.28-2.9-1.79-6.06-4.38-7.57c-3.86-2.24-9.02,0.31-11.79,3.15
			c-1.68,1.73-2.86,3.61-3.65,5.88c-0.36,1.04-0.63,2.11-0.9,3.18c-0.28,0.76-0.57,1.53-0.84,2.3c-0.69,1.98-1.11,4.05-1.54,6.1
			c-0.7,3.32-1.24,6.86-0.42,10.2c1.51,6.1,9.26,7.57,14.09,4.64c2.51-1.52,4.22-4.06,5.37-6.69c0.7-1.59,1.15-3.29,1.57-4.97
			c0.52-2.06,1.12-4.08,1.56-6.16C387.84,305.95,388.4,302.47,388.08,299.14z"/>
		<path class="st283" d="M381.31,304.83c2.95-1.89,5.21-4.67,5.98-8.14c0.04-0.16,0.06-0.32,0.09-0.49
			c-0.72-1.9-1.97-3.63-3.69-4.63c-3.86-2.24-9.02,0.31-11.79,3.15c-1.68,1.73-2.86,3.61-3.65,5.88c-0.18,0.51-0.33,1.03-0.48,1.56
			C370.82,306.52,376.49,307.92,381.31,304.83z"/>
		<path class="st283" d="M373.73,311.44c-2.86-0.26-6.05-0.24-8.76,0.79c-0.69,3.3-1.23,6.83-0.4,10.15
			c1.51,6.1,9.26,7.57,14.09,4.64c2.51-1.52,4.22-4.06,5.37-6.69c0.52-1.18,0.9-2.42,1.23-3.67
			C381.97,313.85,378.28,311.86,373.73,311.44z"/>
		<path class="st285" d="M388.08,299.14c-0.28-2.9-1.79-6.06-4.38-7.57c-0.6-0.35-1.24-0.58-1.89-0.72
			c2.05,1.09,3.63,3.11,4.42,5.63c1.55,4.96-0.05,10.68-1.66,15.44c-1.83,5.41-4.9,10.6-10.65,12.44c-2.41,0.78-5.69,1.15-7.74-0.72
			c-1.02-0.94-1.57-2.15-1.96-3.44c0.06,0.74,0.17,1.47,0.35,2.19c1.51,6.1,9.26,7.57,14.09,4.64c2.51-1.52,4.22-4.06,5.37-6.69
			c0.7-1.59,1.15-3.29,1.57-4.97c0.52-2.06,1.12-4.08,1.56-6.16C387.84,305.95,388.4,302.47,388.08,299.14z"/>
		<path class="st285" d="M378.96,303.85c2.27-0.89,4.44-2.35,5.48-4.63c0.41-0.89,0.65-1.8,0.78-2.74c-0.02-0.17-0.05-0.33-0.08-0.5
			c-3.86-18.15-5.8-18.45-2.81-24.75c2.99-6.3,8.11-15.68,6.57-17.95c-4.93-7.29-17.77-11.79-17.77-11.79s-4.94-0.96-6.18,0.67
			c-1.25,1.63-10.42,21.32-8.45,32.18c1.58,8.73,9.07,22.53,11.97,27.64C370.99,304.82,375.25,305.3,378.96,303.85z"/>
		<path class="st283" d="M364.99,276.2c3.75-0.23,7.44-3.09,6.56-7.26c-1.16-5.46-8.97-8.82-14.16-6.79
			c-1.02,4.38-1.52,8.73-0.89,12.19c0,0.02,0.01,0.04,0.01,0.07C359.15,275.61,362.15,276.38,364.99,276.2z"/>
		<path class="st285" d="M362.31,273.92c2.6-0.16,5.16-2.14,4.54-5.03c-0.8-3.79-6.22-6.12-9.82-4.71c-0.7,3.04-1.05,6.05-0.62,8.45
			c0,0.01,0.01,0.03,0.01,0.04C358.26,273.51,360.34,274.04,362.31,273.92z"/>
		<path class="st283" d="M370.92,258.52c4.91,1.49,10.35,4.1,13.54,8.33c2.75-5.61,5.64-11.78,4.43-13.56
			c-4.93-7.29-17.77-11.79-17.77-11.79s-4.94-0.96-6.18,0.67c-0.73,0.95-4.15,8.04-6.49,15.95
			C362.37,256.71,367.11,257.37,370.92,258.52z"/>
		<path class="st283" d="M369.62,286.24c2.95-0.27,5.83-1.27,8.24-3.02c1.04-0.75,2.51-1.85,3.5-3.12
			c-0.53-2.42-0.65-3.97-0.24-5.68c-4.03,2.18-9.07,2.86-13.45,2.94c-3.29,0.05-8.08-0.18-11.05-2.35c0.46,2.22,1.27,4.74,2.27,7.34
			C361.61,285.28,365.38,286.62,369.62,286.24z"/>
		<path class="st185" d="M369.87,279.21c3.97-0.45,8.15-1.86,11.2-4.53c0.02-0.09,0.03-0.17,0.05-0.26
			c-4.03,2.18-9.07,2.86-13.45,2.94c-3.29,0.05-8.08-0.18-11.05-2.35c0.18,0.84,0.4,1.73,0.67,2.65
			C360.89,279.67,366.06,279.64,369.87,279.21z"/>
		<path class="st290" d="M382.33,271.23c2.99-6.3,8.11-15.68,6.57-17.95c-4.93-7.29-17.77-11.79-17.77-11.79s-1.99-0.39-3.77-0.25
			c0.63,0.06,1.28,0.21,1.93,0.46c2.31,0.85,4.42,2.24,6.28,3.84c1.55,1.33,3.46,3.03,4,5.09c0.91,3.52-1.6,7.44-3.06,10.49
			c-1.97,4.13-3.94,8.83-4.2,13.45c-0.26,4.52,1.36,8.98,3.09,13.09c0.85,2.03,1.77,4.03,2.66,6.04c0.7,1.6,1.67,3.24,2.08,4.95
			c0.67,2.8-0.55,4.54-2.48,5.64c0.45-0.12,0.89-0.26,1.33-0.43c2.27-0.89,4.44-2.35,5.48-4.63c0.41-0.89,0.65-1.8,0.78-2.74
			c-0.02-0.17-0.05-0.33-0.08-0.5C381.28,277.83,379.34,277.53,382.33,271.23z"/>
		<path class="st303" d="M366.56,243.05c0,0-10.73,21.48-9.2,30.38c1.53,8.91,11.97,27.61,11.97,27.61s-10.13-21.29-10.58-29.58
			c-0.45-8.3,12.65-26.03,12.65-26.03L366.56,243.05z"/>
		<path class="st185" d="M379.99,309.75c-0.1,0-0.19-0.02-0.29-0.05c-7.7-2.7-11.81-0.56-11.84-0.54c-0.45,0.24-1.01,0.08-1.25-0.37
			c-0.24-0.45-0.08-1.01,0.37-1.25c0.19-0.11,4.87-2.54,13.33,0.42c0.48,0.17,0.73,0.69,0.56,1.17
			C380.74,309.52,380.38,309.76,379.99,309.75z"/>
		<path class="st185" d="M379.42,313.84c-0.11,0-0.22-0.02-0.33-0.07c-7.92-3.2-12.39-1.01-12.43-0.98
			c-0.45,0.23-1.01,0.05-1.24-0.4c-0.23-0.45-0.05-1.01,0.4-1.24c0.21-0.11,5.26-2.59,13.96,0.92c0.47,0.19,0.7,0.73,0.51,1.2
			C380.15,313.62,379.79,313.84,379.42,313.84z"/>
	</g>
	<g>
		<path class="st302" d="M393.55,309.34c0.36,2.09,0.87,4.14,1.31,6.22c0.36,1.69,0.74,3.41,1.37,5.03c1.04,2.68,2.65,5.28,5.1,6.9
			c4.72,3.12,12.51,1.97,14.27-4.07c0.96-3.31,0.56-6.87-0.01-10.21c-0.35-2.07-0.68-4.15-1.29-6.16c-0.24-0.78-0.49-1.56-0.75-2.33
			c-0.23-1.08-0.45-2.16-0.77-3.21c-0.7-2.3-1.8-4.23-3.42-6.03c-2.65-2.95-7.71-5.71-11.66-3.62c-2.65,1.4-4.29,4.5-4.68,7.39
			C392.58,302.55,393,306.05,393.55,309.34z"/>
		<path class="st283" d="M399.57,305.2c-2.87-2.01-5.02-4.87-5.65-8.37c-0.03-0.16-0.05-0.33-0.07-0.49
			c0.8-1.87,2.11-3.55,3.87-4.48c3.95-2.09,9,0.67,11.66,3.62c1.61,1.79,2.72,3.72,3.42,6.03c0.16,0.52,0.29,1.04,0.42,1.57
			C409.98,307.3,404.26,308.48,399.57,305.2z"/>
		<path class="st283" d="M406.88,312.1c2.87-0.15,6.06,0,8.72,1.14c0.56,3.33,0.96,6.87,0,10.16c-1.76,6.04-9.55,7.19-14.27,4.07
			c-2.44-1.62-4.06-4.22-5.1-6.9c-0.47-1.2-0.8-2.45-1.09-3.71C398.55,314.18,402.31,312.34,406.88,312.1z"/>
		<path class="st285" d="M393.03,299.24c0.39-2.89,2.03-5.99,4.68-7.39c0.62-0.33,1.26-0.53,1.92-0.64
			c-2.09,1.01-3.75,2.96-4.64,5.45c-1.75,4.89-0.37,10.67,1.05,15.5c1.61,5.48,4.47,10.78,10.14,12.86
			c2.38,0.87,5.64,1.37,7.76-0.42c1.06-0.89,1.65-2.09,2.1-3.36c-0.09,0.73-0.23,1.46-0.44,2.17c-1.76,6.04-9.55,7.19-14.27,4.07
			c-2.44-1.62-4.06-4.22-5.1-6.9c-0.63-1.62-1.02-3.33-1.37-5.03c-0.44-2.07-0.95-4.12-1.31-6.22
			C393,306.05,392.58,302.55,393.03,299.24z"/>
		<path class="st285" d="M401.96,304.31c-2.23-0.98-4.34-2.53-5.29-4.85c-0.37-0.9-0.58-1.83-0.67-2.77
			c0.03-0.17,0.06-0.33,0.1-0.49c4.58-17.98,6.53-18.21,3.8-24.62c-2.73-6.41-7.48-15.99-5.85-18.2
			c5.22-7.08,18.23-11.07,18.23-11.07s4.97-0.76,6.15,0.91c1.18,1.67,9.56,21.71,7.16,32.5c-1.92,8.66-9.96,22.15-13.06,27.14
			C409.88,305.6,405.6,305.9,401.96,304.31z"/>
		<path class="st283" d="M417.02,277.24c-3.74-0.38-7.31-3.39-6.26-7.52c1.38-5.41,9.31-8.46,14.42-6.22
			c0.84,4.42,1.17,8.78,0.41,12.22c0,0.02-0.01,0.04-0.02,0.06C422.87,276.88,419.84,277.53,417.02,277.24z"/>
		<path class="st285" d="M419.78,275.07c-2.59-0.26-5.07-2.35-4.34-5.21c0.95-3.75,6.46-5.86,10-4.31c0.58,3.06,0.81,6.09,0.28,8.47
			c0,0.01-0.01,0.03-0.01,0.04C423.84,274.82,421.74,275.27,419.78,275.07z"/>
		<path class="st283" d="M411.79,259.34c-4.96,1.29-10.5,3.68-13.86,7.78c-2.52-5.72-5.17-11.99-3.89-13.73
			c5.22-7.08,18.23-11.07,18.23-11.07s4.97-0.76,6.15,0.91c0.69,0.98,3.82,8.2,5.84,16.19
			C420.41,257.87,415.65,258.34,411.79,259.34z"/>
		<path class="st283" d="M411.99,287.08c-2.94-0.38-5.78-1.5-8.11-3.35c-1.01-0.8-2.43-1.95-3.37-3.25c0.63-2.4,0.81-3.94,0.46-5.67
			c3.94,2.34,8.94,3.22,13.32,3.47c3.29,0.19,8.08,0.14,11.13-1.9c-0.55,2.2-1.46,4.69-2.56,7.24
			C420.03,286.45,416.21,287.63,411.99,287.08z"/>
		<path class="st185" d="M412.02,280.05c-3.95-0.61-8.06-2.19-11.01-4.97c-0.01-0.09-0.02-0.17-0.04-0.26
			c3.94,2.34,8.94,3.22,13.32,3.47c3.29,0.19,8.08,0.14,11.13-1.9c-0.21,0.84-0.47,1.71-0.77,2.62
			C420.97,280.87,415.81,280.63,412.02,280.05z"/>
		<path class="st290" d="M399.89,271.58c-2.73-6.41-7.48-15.99-5.85-18.2c5.22-7.08,18.23-11.07,18.23-11.07s2.01-0.31,3.77-0.1
			c-0.63,0.04-1.28,0.16-1.94,0.38c-2.34,0.76-4.5,2.06-6.42,3.58c-1.6,1.27-3.58,2.89-4.2,4.93c-1.05,3.48,1.31,7.49,2.64,10.61
			c1.8,4.2,3.58,8.98,3.66,13.61c0.08,4.53-1.71,8.92-3.61,12.95c-0.93,1.99-1.93,3.95-2.89,5.93c-0.77,1.57-1.79,3.17-2.27,4.86
			c-0.78,2.77,0.37,4.56,2.26,5.73c-0.44-0.13-0.88-0.29-1.31-0.48c-2.23-0.98-4.34-2.53-5.29-4.85c-0.37-0.9-0.58-1.83-0.67-2.77
			c0.03-0.17,0.06-0.33,0.1-0.49C400.67,278.22,402.62,277.99,399.89,271.58z"/>
		<path class="st303" d="M416.76,244.05c0,0,9.86,21.89,7.98,30.73c-1.88,8.84-13.06,27.12-13.06,27.12s10.97-20.87,11.75-29.14
			c0.78-8.27-11.6-26.51-11.6-26.51L416.76,244.05z"/>
		<path class="st185" d="M400.69,310.17c0.09,0,0.19-0.01,0.29-0.04c7.8-2.39,11.82-0.09,11.86-0.07c0.44,0.26,1,0.12,1.26-0.32
			c0.26-0.44,0.11-1-0.32-1.26c-0.19-0.11-4.76-2.74-13.34-0.11c-0.49,0.15-0.76,0.66-0.61,1.15
			C399.95,309.91,400.3,310.16,400.69,310.17z"/>
		<path class="st185" d="M401.1,314.27c0.11,0,0.22-0.01,0.33-0.05c8.04-2.88,12.42-0.51,12.46-0.49c0.44,0.25,1,0.09,1.25-0.35
			c0.25-0.44,0.09-1-0.35-1.25c-0.21-0.12-5.15-2.8-13.98,0.36c-0.48,0.17-0.73,0.7-0.56,1.18
			C400.38,314.03,400.72,314.26,401.1,314.27z"/>
	</g>
	<path class="st283" d="M370.41,235.43c0,0-1.8-23.61-0.03-32.23c0,0,0.74-4.5,3.35-5.27c2.6-0.78,15.5,1.23,15.5,1.23l-13.17,0.23
		c0,0-3.46,0.16-4.23,5.44C370.98,210.57,371.47,210.14,370.41,235.43z"/>
	<path class="st283" d="M412.35,236.26c0,0,2.74-23.52,1.32-32.2c0,0-0.56-4.52-3.13-5.4c-2.57-0.88-15.54,0.61-15.54,0.61
		l13.15,0.76c0,0,3.45,0.3,4.01,5.6C412.77,211.4,412.3,210.95,412.35,236.26z"/>
</g>
</svg>
