<svg xmlns="http://www.w3.org/2000/svg" xmlns:xlink="http://www.w3.org/1999/xlink" width="1366" zoomAndPan="magnify" viewBox="0 0 1024.5 576" height="768" preserveAspectRatio="xMidYMid meet" version="1.0"><defs><clipPath id="c626bd1273"><path d="M 489 100.101562 L 555 100.101562 L 555 380 L 489 380 Z M 489 100.101562 " clip-rule="nonzero"/></clipPath><clipPath id="b20eae88ec"><path d="M 482 100.101562 L 562 100.101562 L 562 387 L 482 387 Z M 482 100.101562 " clip-rule="nonzero"/></clipPath><clipPath id="5244683edc"><path d="M 552 444 L 581 444 L 581 467 L 552 467 Z M 552 444 " clip-rule="nonzero"/></clipPath><clipPath id="530bcac22e"><path d="M 552.21875 466.765625 C 554.09375 443.46875 561.148438 443.089844 561.148438 443.089844 L 572.429688 443.089844 C 572.429688 443.089844 578.976562 443.828125 580.757812 466.765625 L 552.21875 466.765625 " clip-rule="nonzero"/></clipPath><clipPath id="d6a4bbda39"><path d="M 543 434 L 590 434 L 590 467.601562 L 543 467.601562 Z M 543 434 " clip-rule="nonzero"/></clipPath><clipPath id="38f70b9860"><path d="M 556 174 L 566 174 L 566 455 L 556 455 Z M 556 174 " clip-rule="nonzero"/></clipPath><clipPath id="2cb0a31692"><path d="M 583.726562 454.054688 L 549.988281 454.054688 L 553.617188 440.496094 C 553.617188 440.496094 553.660156 211.816406 553.660156 208.816406 C 553.660156 205.816406 553.660156 201.464844 554.4375 198.894531 C 554.4375 198.894531 561.875 175.339844 562.875 172.34375 C 563.878906 169.34375 564.660156 168.421875 567.234375 168.421875 C 569.8125 168.421875 570.589844 169.34375 571.589844 172.34375 C 572.589844 175.339844 580.027344 198.894531 580.027344 198.894531 C 580.804688 201.464844 580.804688 205.816406 580.804688 208.816406 L 580.804688 440.496094 L 583.726562 454.054688 " clip-rule="nonzero"/></clipPath><clipPath id="bdebaee359"><path d="M 549 168 L 574 168 L 574 455 L 549 455 Z M 549 168 " clip-rule="nonzero"/></clipPath><clipPath id="ceedfd7c6a"><path d="M 583.726562 454.054688 L 549.988281 454.054688 L 553.617188 440.496094 C 553.617188 440.496094 553.660156 211.816406 553.660156 208.816406 C 553.660156 205.816406 553.660156 201.464844 554.4375 198.894531 C 554.4375 198.894531 561.875 175.339844 562.875 172.34375 C 563.878906 169.34375 564.660156 168.421875 567.234375 168.421875 C 569.8125 168.421875 570.589844 169.34375 571.589844 172.34375 C 572.589844 175.339844 580.027344 198.894531 580.027344 198.894531 C 580.804688 201.464844 580.804688 205.816406 580.804688 208.816406 L 580.804688 440.496094 L 583.726562 454.054688 " clip-rule="nonzero"/></clipPath><clipPath id="1f2b2d5069"><path d="M 550 420 L 584 420 L 584 444 L 550 444 Z M 550 420 " clip-rule="nonzero"/></clipPath><clipPath id="fadf029232"><path d="M 583.726562 454.054688 L 549.988281 454.054688 L 553.617188 440.496094 C 553.617188 440.496094 553.660156 211.816406 553.660156 208.816406 C 553.660156 205.816406 553.660156 201.464844 554.4375 198.894531 C 554.4375 198.894531 561.875 175.339844 562.875 172.34375 C 563.878906 169.34375 564.660156 168.421875 567.234375 168.421875 C 569.8125 168.421875 570.589844 169.34375 571.589844 172.34375 C 572.589844 175.339844 580.027344 198.894531 580.027344 198.894531 C 580.804688 201.464844 580.804688 205.816406 580.804688 208.816406 L 580.804688 440.496094 L 583.726562 454.054688 " clip-rule="nonzero"/></clipPath><clipPath id="549d950955"><path d="M 544 333 L 606 333 L 606 421 L 544 421 Z M 544 333 " clip-rule="nonzero"/></clipPath><clipPath id="3262b27881"><path d="M 540.480469 258.441406 C 540.480469 258.441406 547.171875 312.847656 564.832031 340.140625 C 582.496094 367.429688 601.144531 371 604.617188 394.902344 C 605.359375 400.019531 605.730469 405.3125 605.730469 405.3125 L 541.597656 420.625 L 537.039062 260.667969 L 540.480469 258.441406 " clip-rule="nonzero"/></clipPath><clipPath id="75df619412"><path d="M 542 391 L 606 391 L 606 404 L 542 404 Z M 542 391 " clip-rule="nonzero"/></clipPath><clipPath id="405663a5a0"><path d="M 540.480469 258.441406 C 540.480469 258.441406 547.171875 312.847656 564.832031 340.140625 C 582.496094 367.429688 601.144531 371 604.617188 394.902344 C 605.359375 400.019531 605.730469 405.3125 605.730469 405.3125 L 541.597656 420.625 L 537.039062 260.667969 L 540.480469 258.441406 " clip-rule="nonzero"/></clipPath><clipPath id="bf5c336d97"><path d="M 537 333 L 566 333 L 566 334 L 537 334 Z M 537 333 " clip-rule="nonzero"/></clipPath><clipPath id="586bdaa978"><path d="M 540.480469 258.441406 C 540.480469 258.441406 547.171875 312.847656 564.832031 340.140625 C 582.496094 367.429688 601.144531 371 604.617188 394.902344 C 605.359375 400.019531 605.730469 405.3125 605.730469 405.3125 L 541.597656 420.625 L 537.039062 260.667969 L 540.480469 258.441406 " clip-rule="nonzero"/></clipPath><clipPath id="c30e024704"><path d="M 529 251 L 606.453125 251 L 606.453125 428 L 529 428 Z M 529 251 " clip-rule="nonzero"/></clipPath><clipPath id="c8224e1509"><path d="M 463.328125 444 L 493 444 L 493 467 L 463.328125 467 Z M 463.328125 444 " clip-rule="nonzero"/></clipPath><clipPath id="042b13ce68"><path d="M 492.082031 466.765625 C 490.207031 443.46875 483.152344 443.089844 483.152344 443.089844 L 471.871094 443.089844 C 471.871094 443.089844 465.324219 443.828125 463.542969 466.765625 L 492.082031 466.765625 " clip-rule="nonzero"/></clipPath><clipPath id="36d100377e"><path d="M 455 434 L 501 434 L 501 467.601562 L 455 467.601562 Z M 455 434 " clip-rule="nonzero"/></clipPath><clipPath id="75f5b8e1a9"><path d="M 478 174 L 488 174 L 488 455 L 478 455 Z M 478 174 " clip-rule="nonzero"/></clipPath><clipPath id="9cac6976f7"><path d="M 460.558594 454.054688 L 494.300781 454.054688 L 490.664062 440.496094 C 490.664062 440.496094 490.625 211.816406 490.625 208.816406 C 490.625 205.816406 490.625 201.464844 489.847656 198.894531 C 489.847656 198.894531 482.410156 175.339844 481.40625 172.34375 C 480.402344 169.34375 479.621094 168.421875 477.046875 168.421875 C 474.472656 168.421875 473.695312 169.34375 472.695312 172.34375 C 471.695312 175.339844 464.253906 198.894531 464.253906 198.894531 C 463.476562 201.464844 463.476562 205.816406 463.476562 208.816406 L 463.476562 440.496094 L 460.558594 454.054688 " clip-rule="nonzero"/></clipPath><clipPath id="37f7863d22"><path d="M 471 168 L 495 168 L 495 455 L 471 455 Z M 471 168 " clip-rule="nonzero"/></clipPath><clipPath id="c9d38a7833"><path d="M 460.558594 454.054688 L 494.300781 454.054688 L 490.664062 440.496094 C 490.664062 440.496094 490.625 211.816406 490.625 208.816406 C 490.625 205.816406 490.625 201.464844 489.847656 198.894531 C 489.847656 198.894531 482.410156 175.339844 481.40625 172.34375 C 480.402344 169.34375 479.621094 168.421875 477.046875 168.421875 C 474.472656 168.421875 473.695312 169.34375 472.695312 172.34375 C 471.695312 175.339844 464.253906 198.894531 464.253906 198.894531 C 463.476562 201.464844 463.476562 205.816406 463.476562 208.816406 L 463.476562 440.496094 L 460.558594 454.054688 " clip-rule="nonzero"/></clipPath><clipPath id="9e0756d44e"><path d="M 460 420 L 495 420 L 495 444 L 460 444 Z M 460 420 " clip-rule="nonzero"/></clipPath><clipPath id="44b41271f4"><path d="M 460.558594 454.054688 L 494.300781 454.054688 L 490.664062 440.496094 C 490.664062 440.496094 490.625 211.816406 490.625 208.816406 C 490.625 205.816406 490.625 201.464844 489.847656 198.894531 C 489.847656 198.894531 482.410156 175.339844 481.40625 172.34375 C 480.402344 169.34375 479.621094 168.421875 477.046875 168.421875 C 474.472656 168.421875 473.695312 169.34375 472.695312 172.34375 C 471.695312 175.339844 464.253906 198.894531 464.253906 198.894531 C 463.476562 201.464844 463.476562 205.816406 463.476562 208.816406 L 463.476562 440.496094 L 460.558594 454.054688 " clip-rule="nonzero"/></clipPath><clipPath id="51c5c5fcbc"><path d="M 439.203125 258 L 509 258 L 509 421 L 439.203125 421 Z M 439.203125 258 " clip-rule="nonzero"/></clipPath><clipPath id="441bca2ad2"><path d="M 439.203125 333 L 501 333 L 501 421 L 439.203125 421 Z M 439.203125 333 " clip-rule="nonzero"/></clipPath><clipPath id="784350b0d3"><path d="M 505.167969 258.449219 C 505.167969 258.449219 498.476562 312.859375 480.816406 340.148438 C 463.152344 367.441406 444.503906 371.007812 441.03125 394.914062 C 440.285156 400.027344 439.914062 405.320312 439.914062 405.320312 L 504.050781 420.636719 L 508.609375 260.679688 L 505.167969 258.449219 " clip-rule="nonzero"/></clipPath><clipPath id="3812d1e04c"><path d="M 439.203125 391 L 504 391 L 504 404 L 439.203125 404 Z M 439.203125 391 " clip-rule="nonzero"/></clipPath><clipPath id="b56f59c26d"><path d="M 505.167969 258.449219 C 505.167969 258.449219 498.476562 312.859375 480.816406 340.148438 C 463.152344 367.441406 444.503906 371.007812 441.03125 394.914062 C 440.285156 400.027344 439.914062 405.320312 439.914062 405.320312 L 504.050781 420.636719 L 508.609375 260.679688 L 505.167969 258.449219 " clip-rule="nonzero"/></clipPath><clipPath id="c154c5e631"><path d="M 480 333 L 509 333 L 509 334 L 480 334 Z M 480 333 " clip-rule="nonzero"/></clipPath><clipPath id="cd2d5db686"><path d="M 505.167969 258.449219 C 505.167969 258.449219 498.476562 312.859375 480.816406 340.148438 C 463.152344 367.441406 444.503906 371.007812 441.03125 394.914062 C 440.285156 400.027344 439.914062 405.320312 439.914062 405.320312 L 504.050781 420.636719 L 508.609375 260.679688 L 505.167969 258.449219 " clip-rule="nonzero"/></clipPath><clipPath id="da4357b875"><path d="M 439.203125 251 L 516 251 L 516 428 L 439.203125 428 Z M 439.203125 251 " clip-rule="nonzero"/></clipPath><clipPath id="c2d9b401e7"><path d="M 507 206 L 538 206 L 538 219 L 507 219 Z M 507 206 " clip-rule="nonzero"/></clipPath><clipPath id="1a28091fd9"><path d="M 503.6875 420.257812 L 542.359375 420.425781 L 541.953125 299.640625 C 541.953125 299.640625 543.167969 277.257812 539.113281 240.660156 C 536.972656 221.324219 529.0625 206.878906 522.824219 206.355469 C 516.582031 206.878906 509.082031 221.324219 506.9375 240.660156 C 502.886719 277.257812 504.101562 299.640625 504.101562 299.640625 L 503.6875 420.257812 " clip-rule="nonzero"/></clipPath><clipPath id="e8d0d61c80"><path d="M 503.4375 206 L 542 206 L 542 222 L 503.4375 222 Z M 503.4375 206 " clip-rule="nonzero"/></clipPath><clipPath id="30e1cdf348"><path d="M 503.6875 420.257812 L 542.359375 420.425781 L 541.953125 299.640625 C 541.953125 299.640625 543.167969 277.257812 539.113281 240.660156 C 536.972656 221.324219 529.0625 206.878906 522.824219 206.355469 C 516.582031 206.878906 509.082031 221.324219 506.9375 240.660156 C 502.886719 277.257812 504.101562 299.640625 504.101562 299.640625 L 503.6875 420.257812 " clip-rule="nonzero"/></clipPath><clipPath id="805a0d9e94"><path d="M 523 382.664062 L 528 382.664062 L 528 449 L 523 449 Z M 523 382.664062 " clip-rule="nonzero"/></clipPath><clipPath id="92669046a7"><path d="M 524.496094 448.390625 C 524.496094 448.390625 527.46875 432.601562 527.839844 413.945312 C 528.210938 395.289062 525.070312 382.847656 525.070312 382.847656 L 522.472656 382.847656 C 522.472656 382.847656 519.5 395.289062 519.871094 413.945312 C 520.242188 432.601562 524.496094 448.390625 524.496094 448.390625 " clip-rule="nonzero"/></clipPath><clipPath id="b5f3e846b2"><path d="M 520 382.664062 L 528 382.664062 L 528 449 L 520 449 Z M 520 382.664062 " clip-rule="nonzero"/></clipPath><clipPath id="25a6c01b66"><path d="M 524.496094 448.390625 C 524.496094 448.390625 527.46875 432.601562 527.839844 413.945312 C 528.210938 395.289062 525.070312 382.847656 525.070312 382.847656 L 522.472656 382.847656 C 522.472656 382.847656 519.5 395.289062 519.871094 413.945312 C 520.242188 432.601562 524.496094 448.390625 524.496094 448.390625 " clip-rule="nonzero"/></clipPath><clipPath id="bb7c135d8d"><path d="M 503 423 L 522 423 L 522 437 L 503 437 Z M 503 423 " clip-rule="nonzero"/></clipPath><clipPath id="606df2237b"><path d="M 521.710938 438.296875 C 522.03125 417.277344 515.84375 416.917969 515.84375 416.917969 L 508.859375 416.917969 C 508.859375 416.917969 503.0625 417.488281 503.375 438.507812 L 521.710938 438.296875 " clip-rule="nonzero"/></clipPath><clipPath id="132d12ff2a"><path d="M 526 423 L 545 423 L 545 437 L 526 437 Z M 526 423 " clip-rule="nonzero"/></clipPath><clipPath id="3696cb2792"><path d="M 544.574219 438.296875 C 544.894531 417.277344 538.707031 416.917969 538.707031 416.917969 L 531.722656 416.917969 C 531.722656 416.917969 525.921875 417.488281 526.238281 438.507812 L 544.574219 438.296875 " clip-rule="nonzero"/></clipPath><clipPath id="d6cb4b798c"><path d="M 827 370 L 1024 370 L 1024 575.859375 L 827 575.859375 Z M 827 370 " clip-rule="nonzero"/></clipPath><clipPath id="a8bc6342b6"><path d="M 754.972656 644.039062 L 1021.621094 294.671875 L 1181.402344 416.621094 L 914.75 765.988281 Z M 754.972656 644.039062 " clip-rule="nonzero"/></clipPath><clipPath id="ed33165a79"><path d="M 1021.394531 294.96875 L 754.746094 644.335938 L 914.523438 766.285156 L 1181.175781 416.917969 Z M 1021.394531 294.96875 " clip-rule="nonzero"/></clipPath><clipPath id="9dac00cdd5"><path d="M 825 368 L 1024 368 L 1024 575.859375 L 825 575.859375 Z M 825 368 " clip-rule="nonzero"/></clipPath><clipPath id="d1795e2472"><path d="M 754.972656 644.039062 L 1021.621094 294.671875 L 1181.402344 416.621094 L 914.75 765.988281 Z M 754.972656 644.039062 " clip-rule="nonzero"/></clipPath><clipPath id="69d2be00ed"><path d="M 1021.394531 294.96875 L 754.746094 644.335938 L 914.523438 766.285156 L 1181.175781 416.917969 Z M 1021.394531 294.96875 " clip-rule="nonzero"/></clipPath><clipPath id="3d1c6584be"><path d="M 572 461 L 982 461 L 982 575.859375 L 572 575.859375 Z M 572 461 " clip-rule="nonzero"/></clipPath><clipPath id="140ded9635"><path d="M 530.355469 545.976562 L 935.496094 375.621094 L 1013.40625 560.90625 L 608.265625 731.265625 Z M 530.355469 545.976562 " clip-rule="nonzero"/></clipPath><clipPath id="53f85282bc"><path d="M 935.148438 375.765625 L 530.007812 546.125 L 607.917969 731.410156 L 1013.058594 561.054688 Z M 935.148438 375.765625 " clip-rule="nonzero"/></clipPath><clipPath id="6fd174eecd"><path d="M 569 459 L 984 459 L 984 575.859375 L 569 575.859375 Z M 569 459 " clip-rule="nonzero"/></clipPath><clipPath id="d2ebb1a53f"><path d="M 530.355469 545.976562 L 935.496094 375.621094 L 1013.40625 560.90625 L 608.265625 731.265625 Z M 530.355469 545.976562 " clip-rule="nonzero"/></clipPath><clipPath id="5d16b09bfb"><path d="M 935.148438 375.765625 L 530.007812 546.125 L 607.917969 731.410156 L 1013.058594 561.054688 Z M 935.148438 375.765625 " clip-rule="nonzero"/></clipPath><clipPath id="f8b9685da7"><path d="M 560 529 L 682 529 L 682 575.859375 L 560 575.859375 Z M 560 529 " clip-rule="nonzero"/></clipPath><clipPath id="bb46869e81"><path d="M 621.617188 499.652344 L 697.898438 624.433594 L 615.351562 674.898438 L 539.070312 550.117188 Z M 621.617188 499.652344 " clip-rule="nonzero"/></clipPath><clipPath id="f710b0d01d"><path d="M 621.617188 499.652344 L 697.898438 624.433594 L 615.351562 674.898438 L 539.070312 550.117188 Z M 621.617188 499.652344 " clip-rule="nonzero"/></clipPath><clipPath id="ed3a708aaa"><path d="M 550.421875 464.597656 L 591.671875 464.597656 L 591.671875 575.859375 L 550.421875 575.859375 Z M 550.421875 464.597656 " clip-rule="nonzero"/></clipPath><clipPath id="c11da0e417"><path d="M 462 464.597656 L 503.207031 464.597656 L 503.207031 575.859375 L 462 575.859375 Z M 462 464.597656 " clip-rule="nonzero"/></clipPath><clipPath id="22971ce764"><path d="M 384 524 L 495 524 L 495 575.859375 L 384 575.859375 Z M 384 524 " clip-rule="nonzero"/></clipPath><clipPath id="74ae2370ce"><path d="M 369.664062 635.335938 L 427.46875 500.992188 L 516.339844 539.234375 L 458.535156 673.574219 Z M 369.664062 635.335938 " clip-rule="nonzero"/></clipPath><clipPath id="015e946409"><path d="M 427.46875 500.992188 L 369.664062 635.335938 L 458.535156 673.574219 L 516.339844 539.234375 Z M 427.46875 500.992188 " clip-rule="nonzero"/></clipPath><clipPath id="3ea9dca5b1"><path d="M 76 454 L 496 454 L 496 575.859375 L 76 575.859375 Z M 76 454 " clip-rule="nonzero"/></clipPath><clipPath id="32893d419c"><path d="M 112.730469 384.167969 L 530.707031 520.019531 L 468.578125 711.175781 L 50.601562 575.324219 Z M 112.730469 384.167969 " clip-rule="nonzero"/></clipPath><clipPath id="b184695fd1"><path d="M 112.730469 384.167969 L 530.707031 520.019531 L 468.578125 711.175781 L 50.601562 575.324219 Z M 112.730469 384.167969 " clip-rule="nonzero"/></clipPath><clipPath id="192847ab8d"><path d="M 74 452 L 498 452 L 498 575.859375 L 74 575.859375 Z M 74 452 " clip-rule="nonzero"/></clipPath><clipPath id="f1bdf3149c"><path d="M 112.730469 384.167969 L 530.707031 520.019531 L 468.578125 711.175781 L 50.601562 575.324219 Z M 112.730469 384.167969 " clip-rule="nonzero"/></clipPath><clipPath id="adc3fbe355"><path d="M 112.730469 384.167969 L 530.707031 520.019531 L 468.578125 711.175781 L 50.601562 575.324219 Z M 112.730469 384.167969 " clip-rule="nonzero"/></clipPath><clipPath id="4c36b51156"><path d="M 0 396 L 209 396 L 209 575.859375 L 0 575.859375 Z M 0 396 " clip-rule="nonzero"/></clipPath><clipPath id="cd7eab5792"><path d="M -117.195312 301.101562 L 260.785156 525.351562 L 158.230469 698.21875 L -219.753906 473.96875 Z M -117.195312 301.101562 " clip-rule="nonzero"/></clipPath><clipPath id="87892c634e"><path d="M -117.195312 301.101562 L 260.785156 525.351562 L 158.230469 698.21875 L -219.753906 473.96875 Z M -117.195312 301.101562 " clip-rule="nonzero"/></clipPath><clipPath id="f66119a2c2"><path d="M 0 394 L 211 394 L 211 575.859375 L 0 575.859375 Z M 0 394 " clip-rule="nonzero"/></clipPath><clipPath id="75e9398515"><path d="M -117.195312 301.101562 L 260.785156 525.351562 L 158.230469 698.21875 L -219.753906 473.96875 Z M -117.195312 301.101562 " clip-rule="nonzero"/></clipPath><clipPath id="13728ccb19"><path d="M -117.195312 301.101562 L 260.785156 525.351562 L 158.230469 698.21875 L -219.753906 473.96875 Z M -117.195312 301.101562 " clip-rule="nonzero"/></clipPath></defs><g clip-path="url(#c626bd1273)"><path fill="#bdbcbc" d="M 489.4375 379.722656 L 490.117188 222.363281 C 490.117188 222.363281 488.070312 193.203125 494.898438 145.519531 C 498.5 120.328125 511.808594 101.511719 522.3125 100.828125 C 532.816406 101.511719 545.441406 120.328125 549.046875 145.519531 C 555.871094 193.203125 553.824219 222.363281 553.824219 222.363281 L 554.503906 379.722656 Z M 489.4375 379.722656 " fill-opacity="1" fill-rule="nonzero"/></g><g clip-path="url(#b20eae88ec)"><path stroke-linecap="butt" transform="matrix(0.948129, 0, 0, 0.946976, 139.558035, -445.424403)" fill="none" stroke-linejoin="miter" d="M 369.020829 871.349734 L 369.737701 705.179295 C 369.737701 705.179295 367.578845 674.386366 374.780526 624.032812 C 378.579124 597.430857 392.615811 577.560859 403.694369 576.838989 C 414.772928 577.560859 428.088622 597.430857 431.891341 624.032812 C 439.088902 674.386366 436.930045 705.179295 436.930045 705.179295 L 437.646918 871.349734 Z M 369.020829 871.349734 " stroke="#231f20" stroke-width="1.385" stroke-opacity="1" stroke-miterlimit="3.864"/></g><path fill="#7b7979" d="M 552.222656 466.769531 C 554.097656 443.46875 561.152344 443.089844 561.152344 443.089844 L 572.433594 443.089844 C 572.433594 443.089844 578.980469 443.828125 580.761719 466.769531 L 552.222656 466.769531 " fill-opacity="1" fill-rule="nonzero"/><g clip-path="url(#5244683edc)"><g clip-path="url(#530bcac22e)"><path stroke-linecap="butt" transform="matrix(2.506854, 0, 0, -2.503804, -7.961407, 1324.094386)" fill="none" stroke-linejoin="miter" d="M 229.430557 348.270324 L 229.430557 341.076582 M 226.909344 348.566748 L 226.278262 341.371446 M 231.850485 348.418536 L 232.483126 341.223234 " stroke="#231f20" stroke-width="0.524" stroke-opacity="1" stroke-miterlimit="3.864"/></g></g><g clip-path="url(#d6a4bbda39)"><path stroke-linecap="butt" transform="matrix(2.506854, 0, 0, -2.503804, -7.961407, 1324.094386)" fill="none" stroke-linejoin="miter" d="M 223.459428 342.41049 C 224.207377 351.715082 227.021537 351.866414 227.021537 351.866414 L 231.521699 351.866414 C 231.521699 351.866414 234.133289 351.57155 234.843841 342.41049 Z M 223.459428 342.41049 " stroke="#231f20" stroke-width="0.612" stroke-opacity="1" stroke-miterlimit="3.864"/></g><path fill="#e2e2e2" d="M 583.726562 454.054688 L 549.988281 454.054688 L 553.617188 440.496094 C 553.617188 440.496094 553.660156 211.816406 553.660156 208.816406 C 553.660156 205.816406 553.660156 201.464844 554.4375 198.894531 C 554.4375 198.894531 561.875 175.339844 562.875 172.34375 C 563.878906 169.34375 564.660156 168.421875 567.234375 168.421875 C 569.8125 168.421875 570.589844 169.34375 571.589844 172.34375 C 572.589844 175.339844 580.027344 198.894531 580.027344 198.894531 C 580.804688 201.464844 580.804688 205.816406 580.804688 208.816406 L 580.804688 440.496094 L 583.726562 454.054688 " fill-opacity="1" fill-rule="nonzero"/><g clip-path="url(#38f70b9860)"><g clip-path="url(#2cb0a31692)"><path fill="#d3d2d2" d="M 563.421875 442.722656 L 563.460938 207.472656 C 563.460938 207.472656 563.113281 208.308594 563.460938 202.273438 C 563.777344 196.820312 564.730469 185.058594 565.878906 174.617188 C 563.8125 181.054688 559.441406 199.164062 559.441406 199.164062 C 559.246094 199.832031 559.082031 201.015625 558.992188 202.667969 C 558.902344 204.351562 558.902344 206.089844 558.902344 207.503906 L 558.902344 442.722656 L 556.675781 455.167969 C 556.675781 455.167969 563.421875 451.359375 563.421875 442.722656 Z M 563.421875 442.722656 " fill-opacity="1" fill-rule="nonzero"/></g></g><g clip-path="url(#bdebaee359)"><g clip-path="url(#ceedfd7c6a)"><path stroke-linecap="butt" transform="matrix(2.506854, 0, 0, -2.503804, -7.961407, 1324.094386)" fill="none" stroke-linejoin="miter" d="M 227.928425 352.013066 L 227.944008 445.9701 C 227.944008 445.9701 227.805325 445.636233 227.944008 448.046628 C 228.070224 450.224564 228.450432 454.922104 228.908551 459.092321 C 228.084248 456.521233 226.340591 449.288489 226.340591 449.288489 C 226.26268 449.021707 226.197234 448.548989 226.161395 447.889055 C 226.125556 447.216641 226.125556 446.522385 226.125556 445.957619 L 226.125556 352.013066 L 225.237366 347.042504 C 225.237366 347.042504 227.928425 348.563627 227.928425 352.013066 Z M 227.928425 352.013066 " stroke="#d3d2d2" stroke-width="0.524" stroke-opacity="1" stroke-miterlimit="3.864"/></g></g><g clip-path="url(#1f2b2d5069)"><g clip-path="url(#fadf029232)"><path stroke-linecap="butt" transform="matrix(2.506854, 0, 0, -2.503804, -7.961407, 1324.094386)" fill="none" stroke-linejoin="miter" d="M 235.579325 360.690488 L 222.862626 360.690488 M 235.727356 357.428264 L 223.010658 357.428264 M 235.727356 351.864854 L 223.010658 351.864854 " stroke="#7b7979" stroke-width="0.524" stroke-opacity="1" stroke-miterlimit="3.864"/></g></g><path stroke-linecap="butt" transform="matrix(2.506854, 0, 0, -2.503804, -7.961407, 1324.094386)" fill="none" stroke-linejoin="miter" d="M 236.028094 347.48714 L 222.569679 347.48714 L 224.017273 352.902338 C 224.017273 352.902338 224.034414 444.23524 224.034414 445.433417 C 224.034414 446.631594 224.034414 448.369574 224.344501 449.396137 C 224.344501 449.396137 227.311367 458.803698 227.710274 460.000314 C 228.110738 461.198491 228.422384 461.566681 229.449256 461.566681 C 230.477686 461.566681 230.787774 461.198491 231.18668 460.000314 C 231.585587 458.803698 234.552453 449.396137 234.552453 449.396137 C 234.86254 448.369574 234.86254 446.631594 234.86254 445.433417 L 234.86254 352.902338 Z M 236.028094 347.48714 " stroke="#231f20" stroke-width="0.524" stroke-opacity="1" stroke-miterlimit="3.864"/><path fill="#ffffff" d="M 540.480469 258.441406 C 540.480469 258.441406 547.171875 312.847656 564.832031 340.140625 C 582.496094 367.429688 601.144531 371 604.617188 394.902344 C 605.359375 400.019531 605.730469 405.3125 605.730469 405.3125 L 541.597656 420.625 L 537.039062 260.667969 L 540.480469 258.441406 " fill-opacity="1" fill-rule="nonzero"/><g clip-path="url(#549d950955)"><g clip-path="url(#3262b27881)"><path fill="#231f20" d="M 544.949219 425.179688 L 607.972656 414.6875 L 607.972656 381.734375 L 568.558594 333.53125 L 557.664062 333.53125 C 562.34375 342.636719 568.203125 351.21875 575.632812 359.097656 C 590.632812 375.003906 599.964844 378.074219 602.238281 402.777344 L 544.773438 416.5 L 544.949219 425.179688 " fill-opacity="1" fill-rule="nonzero"/></g></g><g clip-path="url(#75df619412)"><g clip-path="url(#405663a5a0)"><path fill="#231f20" d="M 542.34375 391.851562 L 607.59375 391.851562 L 607.59375 397.421875 L 542.714844 403.085938 L 542.34375 391.851562 " fill-opacity="1" fill-rule="nonzero"/></g></g><g clip-path="url(#bf5c336d97)"><g clip-path="url(#586bdaa978)"><path stroke-linecap="butt" transform="matrix(2.506854, 0, 0, -2.503804, -7.961407, 1324.094386)" fill="none" stroke-linejoin="miter" d="M 228.640536 395.690356 L 217.405712 395.690356 " stroke="#231f20" stroke-width="0.262" stroke-opacity="1" stroke-miterlimit="3.864"/></g></g><g clip-path="url(#c30e024704)"><path stroke-linecap="butt" transform="matrix(2.506854, 0, 0, -2.503804, -7.961407, 1324.094386)" fill="none" stroke-linejoin="miter" d="M 218.776953 425.613575 C 218.776953 425.613575 221.446197 403.884139 228.490946 392.983538 C 235.537253 382.084497 242.976233 380.658541 244.361498 371.11213 C 244.657561 369.068365 244.805593 366.954394 244.805593 366.954394 L 219.222606 360.838699 L 217.404154 424.724303 Z M 218.776953 425.613575 " stroke="#231f20" stroke-width="0.524" stroke-opacity="1" stroke-miterlimit="3.864"/></g><path stroke-linecap="butt" transform="matrix(2.506854, 0, 0, -2.503804, -7.961407, 1324.094386)" fill="none" stroke-linejoin="miter" d="M 231.38925 456.279414 L 227.496796 456.279414 M 233.614399 447.899976 L 225.234249 447.899976 M 233.614399 440.447254 L 225.234249 440.447254 M 233.614399 428.916362 L 225.234249 428.916362 M 233.614399 408.115201 L 225.234249 408.115201 " stroke="#231f20" stroke-width="0.524" stroke-opacity="1" stroke-miterlimit="3.864"/><path fill="#231f20" d="M 574.332031 336.34375 L 577.675781 336.34375 L 577.675781 347.574219 L 574.332031 347.574219 Z M 574.332031 336.34375 " fill-opacity="1" fill-rule="nonzero"/><path stroke-linecap="butt" transform="matrix(2.506854, 0, 0, -2.503804, -7.961407, 1324.094386)" fill="none" stroke-linejoin="miter" d="M 232.430146 364.400467 L 232.430146 371.11681 " stroke="#231f20" stroke-width="0.524" stroke-opacity="1" stroke-miterlimit="3.864"/><path stroke-linecap="butt" transform="matrix(2.506854, 0, 0, -2.503804, -7.961407, 1324.094386)" fill="none" stroke-linejoin="miter" d="M 232.430146 370.260301 L 232.430146 372.687857 " stroke="#ffffff" stroke-width="0.524" stroke-opacity="1" stroke-miterlimit="3.864"/><path fill="#7b7979" d="M 492.082031 466.765625 C 490.207031 443.46875 483.152344 443.089844 483.152344 443.089844 L 471.871094 443.089844 C 471.871094 443.089844 465.324219 443.828125 463.542969 466.765625 L 492.082031 466.765625 " fill-opacity="1" fill-rule="nonzero"/><g clip-path="url(#c8224e1509)"><g clip-path="url(#042b13ce68)"><path stroke-linecap="butt" transform="matrix(2.506854, 0, 0, -2.503804, -7.961407, 1324.094386)" fill="none" stroke-linejoin="miter" d="M 193.499378 348.270324 L 193.499378 341.076582 M 196.020591 348.566748 L 196.651674 341.371446 M 191.07945 348.418536 L 190.44681 341.223234 " stroke="#231f20" stroke-width="0.524" stroke-opacity="1" stroke-miterlimit="3.864"/></g></g><g clip-path="url(#36d100377e)"><path stroke-linecap="butt" transform="matrix(2.506854, 0, 0, -2.503804, -7.961407, 1324.094386)" fill="none" stroke-linejoin="miter" d="M 199.470508 342.41049 C 198.722559 351.715082 195.908399 351.866414 195.908399 351.866414 L 191.408237 351.866414 C 191.408237 351.866414 188.796646 351.57155 188.086095 342.41049 Z M 199.470508 342.41049 " stroke="#231f20" stroke-width="0.612" stroke-opacity="1" stroke-miterlimit="3.864"/></g><path fill="#e2e2e2" d="M 460.558594 454.054688 L 494.300781 454.054688 L 490.664062 440.496094 C 490.664062 440.496094 490.625 211.816406 490.625 208.816406 C 490.625 205.816406 490.625 201.464844 489.847656 198.894531 C 489.847656 198.894531 482.410156 175.339844 481.40625 172.34375 C 480.402344 169.34375 479.621094 168.421875 477.046875 168.421875 C 474.472656 168.421875 473.695312 169.34375 472.695312 172.34375 C 471.695312 175.339844 464.253906 198.894531 464.253906 198.894531 C 463.476562 201.464844 463.476562 205.816406 463.476562 208.816406 L 463.476562 440.496094 L 460.558594 454.054688 " fill-opacity="1" fill-rule="nonzero"/><g clip-path="url(#75f5b8e1a9)"><g clip-path="url(#9cac6976f7)"><path fill="#d3d2d2" d="M 480.863281 442.722656 L 480.824219 207.472656 C 480.824219 207.472656 481.171875 208.308594 480.824219 202.273438 C 480.507812 196.820312 479.554688 185.058594 478.40625 174.617188 C 480.472656 181.054688 484.847656 199.164062 484.847656 199.164062 C 485.035156 199.832031 485.203125 201.015625 485.289062 202.667969 C 485.382812 204.351562 485.378906 206.089844 485.378906 207.503906 L 485.378906 442.722656 L 487.609375 455.167969 C 487.609375 455.167969 480.863281 451.359375 480.863281 442.722656 Z M 480.863281 442.722656 " fill-opacity="1" fill-rule="nonzero"/></g></g><g clip-path="url(#37f7863d22)"><g clip-path="url(#c9d38a7833)"><path stroke-linecap="butt" transform="matrix(2.506854, 0, 0, -2.503804, -7.961407, 1324.094386)" fill="none" stroke-linejoin="miter" d="M 194.995277 352.013066 L 194.979695 445.9701 C 194.979695 445.9701 195.118377 445.636233 194.979695 448.046628 C 194.853479 450.224564 194.473271 454.922104 194.015152 459.092321 C 194.839455 456.521233 196.58467 449.288489 196.58467 449.288489 C 196.659465 449.021707 196.726469 448.548989 196.76075 447.889055 C 196.798147 447.216641 196.796589 446.522385 196.796589 445.957619 L 196.796589 352.013066 L 197.686337 347.042504 C 197.686337 347.042504 194.995277 348.563627 194.995277 352.013066 Z M 194.995277 352.013066 " stroke="#d3d2d2" stroke-width="0.524" stroke-opacity="1" stroke-miterlimit="3.864"/></g></g><g clip-path="url(#9e0756d44e)"><g clip-path="url(#44b41271f4)"><path stroke-linecap="butt" transform="matrix(2.506854, 0, 0, -2.503804, -7.961407, 1324.094386)" fill="none" stroke-linejoin="miter" d="M 187.339703 360.690488 L 200.059518 360.690488 M 187.191672 357.428264 L 199.909928 357.428264 M 187.191672 351.864854 L 199.909928 351.864854 " stroke="#7b7979" stroke-width="0.524" stroke-opacity="1" stroke-miterlimit="3.864"/></g></g><path stroke-linecap="butt" transform="matrix(2.506854, 0, 0, -2.503804, -7.961407, 1324.094386)" fill="none" stroke-linejoin="miter" d="M 186.895608 347.48714 L 200.355582 347.48714 L 198.904871 352.902338 C 198.904871 352.902338 198.889289 444.23524 198.889289 445.433417 C 198.889289 446.631594 198.889289 448.369574 198.579202 449.396137 C 198.579202 449.396137 195.612336 458.803698 195.211871 460.000314 C 194.811406 461.198491 194.499761 461.566681 193.472889 461.566681 C 192.446016 461.566681 192.135929 461.198491 191.737023 460.000314 C 191.338116 458.803698 188.369692 449.396137 188.369692 449.396137 C 188.059605 448.369574 188.059605 446.631594 188.059605 445.433417 L 188.059605 352.902338 Z M 186.895608 347.48714 " stroke="#231f20" stroke-width="0.524" stroke-opacity="1" stroke-miterlimit="3.864"/><g clip-path="url(#51c5c5fcbc)"><path fill="#ffffff" d="M 505.167969 258.449219 C 505.167969 258.449219 498.476562 312.859375 480.816406 340.148438 C 463.152344 367.441406 444.503906 371.007812 441.03125 394.914062 C 440.285156 400.027344 439.914062 405.320312 439.914062 405.320312 L 504.050781 420.636719 L 508.609375 260.679688 L 505.167969 258.449219 " fill-opacity="1" fill-rule="nonzero"/></g><g clip-path="url(#441bca2ad2)"><g clip-path="url(#784350b0d3)"><path fill="#231f20" d="M 500.703125 425.179688 L 437.683594 414.6875 L 437.683594 381.734375 L 477.097656 333.53125 L 487.992188 333.53125 C 483.3125 342.636719 477.449219 351.21875 470.023438 359.097656 C 455.023438 375.003906 445.695312 378.074219 443.417969 402.777344 L 500.882812 416.5 L 500.703125 425.179688 " fill-opacity="1" fill-rule="nonzero"/></g></g><g clip-path="url(#3812d1e04c)"><g clip-path="url(#b56f59c26d)"><path fill="#231f20" d="M 503.3125 391.851562 L 438.058594 391.851562 L 438.058594 397.421875 L 502.941406 403.085938 L 503.3125 391.851562 " fill-opacity="1" fill-rule="nonzero"/></g></g><g clip-path="url(#c154c5e631)"><g clip-path="url(#cd2d5db686)"><path stroke-linecap="butt" transform="matrix(2.506854, 0, 0, -2.503804, -7.961407, 1324.094386)" fill="none" stroke-linejoin="miter" d="M 194.830105 395.690356 L 206.064929 395.690356 " stroke="#231f20" stroke-width="0.262" stroke-opacity="1" stroke-miterlimit="3.864"/></g></g><g clip-path="url(#da4357b875)"><path stroke-linecap="butt" transform="matrix(2.506854, 0, 0, -2.503804, -7.961407, 1324.094386)" fill="none" stroke-linejoin="miter" d="M 204.690572 425.610455 C 204.690572 425.610455 202.021327 403.879458 194.976579 392.980417 C 187.930272 382.079816 180.491291 380.655421 179.106027 371.107449 C 178.808405 369.065244 178.660374 366.951274 178.660374 366.951274 L 204.244919 360.834019 L 206.063371 424.719623 Z M 204.690572 425.610455 " stroke="#231f20" stroke-width="0.524" stroke-opacity="1" stroke-miterlimit="3.864"/></g><path stroke-linecap="butt" transform="matrix(2.506854, 0, 0, -2.503804, -7.961407, 1324.094386)" fill="none" stroke-linejoin="miter" d="M 191.529778 456.279414 L 195.42379 456.279414 M 189.307745 447.899976 L 197.686337 447.899976 M 189.307745 440.447254 L 197.686337 440.447254 M 189.307745 428.916362 L 197.686337 428.916362 M 189.307745 408.115201 L 197.686337 408.115201 " stroke="#231f20" stroke-width="0.524" stroke-opacity="1" stroke-miterlimit="3.864"/><path fill="#231f20" d="M 466.609375 336.34375 L 469.957031 336.34375 L 469.957031 347.574219 L 466.609375 347.574219 Z M 466.609375 336.34375 " fill-opacity="1" fill-rule="nonzero"/><path fill="#ffffff" d="M 503.6875 420.257812 L 542.359375 420.425781 L 541.953125 299.640625 C 541.953125 299.640625 543.167969 277.257812 539.113281 240.660156 C 536.972656 221.324219 529.0625 206.878906 522.824219 206.355469 C 516.582031 206.878906 509.082031 221.324219 506.9375 240.660156 C 502.886719 277.257812 504.101562 299.640625 504.101562 299.640625 L 503.6875 420.257812 " fill-opacity="1" fill-rule="nonzero"/><g clip-path="url(#c2d9b401e7)"><g clip-path="url(#1a28091fd9)"><path fill="#231f20" d="M 507.496094 209.703125 C 507.496094 204.929688 514.21875 201.066406 522.507812 201.066406 C 530.800781 201.066406 537.523438 204.929688 537.523438 209.703125 C 537.523438 214.472656 530.800781 218.335938 522.507812 218.335938 C 514.214844 218.335938 507.496094 214.472656 507.496094 209.703125 Z M 507.496094 209.703125 " fill-opacity="1" fill-rule="nonzero"/></g></g><g clip-path="url(#e8d0d61c80)"><g clip-path="url(#30e1cdf348)"><path stroke-linecap="butt" transform="matrix(2.506854, 0, 0, -2.503804, -7.961407, 1324.094386)" fill="none" stroke-linejoin="miter" d="M 205.619276 445.079268 C 205.619276 446.985742 208.300986 448.528707 211.607546 448.528707 C 214.915664 448.528707 217.597374 446.985742 217.597374 445.079268 C 217.597374 443.174354 214.915664 441.63139 211.607546 441.63139 C 208.299428 441.63139 205.619276 443.174354 205.619276 445.079268 Z M 205.619276 445.079268 " stroke="#231f20" stroke-width="0.262" stroke-opacity="1" stroke-miterlimit="3.864"/></g></g><path stroke-linecap="butt" transform="matrix(2.506854, 0, 0, -2.503804, -7.961407, 1324.094386)" fill="none" stroke-linejoin="miter" d="M 204.100003 360.985351 L 219.52646 360.918266 L 219.364405 409.158925 C 219.364405 409.158925 219.849013 418.098448 218.231573 432.715269 C 217.377664 440.437893 214.222252 446.20724 211.733762 446.416296 C 209.243714 446.20724 206.251916 440.437893 205.396449 432.715269 C 203.780567 418.098448 204.265176 409.158925 204.265176 409.158925 Z M 204.100003 360.985351 " stroke="#231f20" stroke-width="0.524" stroke-opacity="1" stroke-miterlimit="3.864"/><path stroke-linecap="butt" transform="matrix(2.506854, 0, 0, -2.503804, -7.961407, 1324.094386)" fill-opacity="1" fill="#918f90" fill-rule="nonzero" stroke-linejoin="miter" d="M 215.012274 428.89764 C 214.608693 430.772912 213.07228 431.284633 211.593522 430.966368 C 210.102298 431.275273 208.433435 430.819716 208.020505 428.89764 L 206.484092 429.228387 C 207.041938 431.821317 209.223457 432.913405 211.587289 432.567057 C 213.932422 432.922766 216.003307 431.765152 216.548687 429.228387 Z M 215.012274 428.89764 " stroke="#231f20" stroke-width="0.262" stroke-opacity="1" stroke-miterlimit="3.864"/><path fill="#ffffff" d="M 524.496094 448.390625 C 524.496094 448.390625 527.46875 432.601562 527.839844 413.945312 C 528.210938 395.289062 525.070312 382.847656 525.070312 382.847656 L 522.472656 382.847656 C 522.472656 382.847656 519.5 395.289062 519.871094 413.945312 C 520.242188 432.601562 524.496094 448.390625 524.496094 448.390625 " fill-opacity="1" fill-rule="nonzero"/><g clip-path="url(#805a0d9e94)"><g clip-path="url(#92669046a7)"><path fill="#d3d2d2" d="M 523.953125 452.46875 L 523.953125 377.921875 L 529.253906 377.921875 L 529.253906 452.84375 Z M 523.953125 452.46875 " fill-opacity="1" fill-rule="nonzero"/></g></g><g clip-path="url(#b5f3e846b2)"><g clip-path="url(#25a6c01b66)"><path stroke-linecap="butt" transform="matrix(2.506854, 0, 0, -2.503804, -7.961407, 1324.094386)" fill="none" stroke-linejoin="miter" d="M 212.18409 348.120552 L 212.18409 377.893998 L 214.298605 377.893998 L 214.298605 347.970779 Z M 212.18409 348.120552 " stroke="#231f20" stroke-width="0.262" stroke-opacity="1" stroke-miterlimit="3.864"/></g></g><path stroke-linecap="butt" transform="matrix(2.506854, 0, 0, -2.503804, -7.961407, 1324.094386)" fill="none" stroke-linejoin="miter" d="M 212.400684 349.749323 C 212.400684 349.749323 213.586495 356.055353 213.734527 363.506515 C 213.882559 370.957677 212.629743 375.926679 212.629743 375.926679 L 211.593522 375.926679 C 211.593522 375.926679 210.40771 370.957677 210.555742 363.506515 C 210.703774 356.055353 212.400684 349.749323 212.400684 349.749323 Z M 212.400684 349.749323 " stroke="#231f20" stroke-width="0.262" stroke-opacity="1" stroke-miterlimit="3.864"/><path fill="#231f20" d="M 521.710938 438.296875 C 522.03125 417.277344 515.84375 416.917969 515.84375 416.917969 L 508.859375 416.917969 C 508.859375 416.917969 503.0625 417.488281 503.375 438.507812 L 521.710938 438.296875 " fill-opacity="1" fill-rule="nonzero"/><g clip-path="url(#bb7c135d8d)"><g clip-path="url(#606df2237b)"><path stroke-linecap="butt" transform="matrix(2.506854, 0, 0, -2.503804, -7.961407, 1324.094386)" fill="none" stroke-linejoin="miter" d="M 202.619687 354.840015 L 211.741553 354.840015 M 202.619687 356.411062 L 211.741553 356.411062 M 202.619687 357.983669 L 211.741553 357.983669 M 202.619687 359.554716 L 211.741553 359.554716 " stroke="#7b7979" stroke-width="0.524" stroke-opacity="1" stroke-miterlimit="3.864"/></g></g><path stroke-linecap="butt" transform="matrix(2.506854, 0, 0, -2.503804, -7.961407, 1324.094386)" fill="none" stroke-linejoin="miter" d="M 211.289667 353.780689 C 211.417442 362.175728 208.949209 362.319259 208.949209 362.319259 L 206.163097 362.319259 C 206.163097 362.319259 203.850687 362.091481 203.975345 353.696442 Z M 211.289667 353.780689 " stroke="#231f20" stroke-width="0.524" stroke-opacity="1" stroke-miterlimit="3.864"/><path fill="#231f20" d="M 544.574219 438.296875 C 544.894531 417.277344 538.707031 416.917969 538.707031 416.917969 L 531.722656 416.917969 C 531.722656 416.917969 525.921875 417.488281 526.238281 438.507812 L 544.574219 438.296875 " fill-opacity="1" fill-rule="nonzero"/><g clip-path="url(#132d12ff2a)"><g clip-path="url(#3696cb2792)"><path stroke-linecap="butt" transform="matrix(2.506854, 0, 0, -2.503804, -7.961407, 1324.094386)" fill="none" stroke-linejoin="miter" d="M 211.739995 354.840015 L 220.861862 354.840015 M 211.739995 356.411062 L 220.861862 356.411062 M 211.739995 357.983669 L 220.861862 357.983669 M 211.739995 359.554716 L 220.861862 359.554716 " stroke="#7b7979" stroke-width="0.524" stroke-opacity="1" stroke-miterlimit="3.864"/></g></g><path stroke-linecap="butt" transform="matrix(0.948129, 0, 0, 0.946976, 139.558035, -445.424403)" fill="none" stroke-linejoin="miter" d="M 427.178112 933.19959 C 427.515949 911.003106 420.98994 910.623609 420.98994 910.623609 L 413.623461 910.623609 C 413.623461 910.623609 407.509448 911.22173 407.843164 933.418213 Z M 427.178112 933.19959 " stroke="#231f20" stroke-width="1.385" stroke-opacity="1" stroke-miterlimit="3.864"/><path stroke-linecap="butt" transform="matrix(0.948129, 0, 0, 0.946976, 139.558035, -445.424403)" fill-opacity="1" fill="#ffffff" fill-rule="nonzero" stroke-linejoin="miter" d="M 401.988708 914.538209 C 402.380104 874.930211 394.741707 874.249591 394.741707 874.249591 L 386.118642 874.249591 C 386.118642 874.249591 378.96228 875.322084 379.353676 914.930081 L 401.988708 914.542334 Z M 401.988708 914.538209 " stroke="#231f20" stroke-width="1.385" stroke-opacity="1" stroke-miterlimit="3.864"/><path stroke-linecap="butt" transform="matrix(0.948129, 0, 0, 0.946976, 139.558035, -445.424403)" fill-opacity="1" fill="#ffffff" fill-rule="nonzero" stroke-linejoin="miter" d="M 431.689463 914.538209 C 432.084979 874.930211 424.442462 874.249591 424.442462 874.249591 L 415.819397 874.249591 C 415.819397 874.249591 408.663035 875.322084 409.054431 914.930081 L 431.689463 914.542334 Z M 431.689463 914.538209 " stroke="#231f20" stroke-width="1.385" stroke-opacity="1" stroke-miterlimit="3.864"/><path stroke-linecap="butt" transform="matrix(0.948129, 0, 0, 0.946976, 139.558035, -445.424403)" fill="none" stroke-linejoin="miter" d="M 348.079098 905.129144 L 348.079098 887.371132 " stroke="#231f20" stroke-width="1.385" stroke-opacity="1" stroke-miterlimit="3.864"/><path stroke-linecap="butt" transform="matrix(0.948129, 0, 0, 0.946976, 139.558035, -445.424403)" fill="none" stroke-linejoin="miter" d="M 348.079098 889.639867 L 348.079098 883.221408 " stroke="#ffffff" stroke-width="1.385" stroke-opacity="1" stroke-miterlimit="3.864"/><g clip-path="url(#d6cb4b798c)"><g clip-path="url(#a8bc6342b6)"><g clip-path="url(#ed33165a79)"><path fill="#000000" d="M 846.085938 706.609375 C 856.242188 710.007812 867.519531 706.300781 876.648438 700.675781 C 887.441406 694.023438 896.460938 684.582031 902.804688 673.617188 C 919.890625 684.726562 943.976562 684.023438 960.3125 671.710938 C 973.738281 661.601562 981.097656 644.292969 979.988281 627.59375 C 999.328125 627.402344 1018.597656 618.515625 1030.996094 603.5625 C 1042.832031 589.285156 1048.078125 569.894531 1045.585938 551.582031 C 1055.113281 550.816406 1064.507812 548.65625 1073.042969 544.394531 C 1084.730469 538.578125 1094.65625 528.527344 1098.503906 516.058594 C 1100.960938 508.121094 1100.613281 499.242188 1097.53125 491.59375 C 1111.375 488.082031 1122.78125 475.046875 1123.289062 460.613281 C 1123.820312 445.867188 1112.914062 431.808594 1098.929688 427.691406 C 1109.371094 421.097656 1117.789062 411.253906 1122.511719 399.839844 C 1125.679688 392.160156 1126.917969 382.492188 1121.46875 376.238281 C 1117.246094 371.394531 1110.257812 370.082031 1103.820312 370.015625 C 1082.5 369.773438 1061.957031 379.871094 1046.238281 394.328125 C 1033.011719 406.496094 1022.835938 421.566406 1014.214844 437.40625 C 1006.027344 431.488281 993.585938 431.3125 984.320312 436.253906 C 976.320312 440.53125 970.351562 447.574219 965.796875 455.523438 C 946.417969 445.839844 921.28125 448.308594 903.988281 461.71875 C 884.4375 476.890625 875.875 504.398438 882.164062 528.304688 C 886.316406 544.070312 896.546875 557.867188 909.875 567.273438 C 900.859375 569.632812 892.195312 573.304688 884.707031 578.828125 C 874.625 586.273438 866.882812 597.378906 865.226562 609.796875 C 864.269531 616.992188 865.609375 624.550781 868.953125 630.9375 C 861.722656 634.148438 854.753906 637.816406 848.441406 642.558594 C 837.9375 650.484375 829.402344 661.925781 827.941406 674.996094 C 826.484375 688.074219 833.636719 702.433594 846.085938 706.609375 Z M 846.085938 706.609375 " fill-opacity="1" fill-rule="nonzero"/></g></g></g><g clip-path="url(#9dac00cdd5)"><g clip-path="url(#d1795e2472)"><g clip-path="url(#69d2be00ed)"><path fill="#000000" d="M 825.761719 679.269531 C 825.628906 664.902344 834.371094 651.875 845.09375 643 C 851.472656 637.726562 858.761719 633.695312 866.246094 630.230469 C 861.808594 620.3125 862.027344 609.042969 866.28125 599.011719 C 871.019531 587.828125 880.027344 578.90625 890.511719 573.015625 C 895.25 570.351562 900.300781 568.285156 905.476562 566.65625 C 895.535156 558.816406 887.480469 548.625 882.746094 536.820312 C 878.011719 525.015625 876.957031 511.957031 879.425781 499.488281 C 884.273438 474.945312 902.402344 454.476562 927.171875 449.175781 C 939.933594 446.449219 953.371094 447.628906 965.269531 452.972656 C 970.726562 444.199219 978.09375 436.269531 988.007812 432.710938 C 996.265625 429.75 1006.085938 430.117188 1013.730469 434.570312 C 1027.25 410.421875 1045.082031 387.613281 1070.726562 375.707031 C 1082.074219 370.445312 1094.984375 367.195312 1107.546875 368.246094 C 1114.046875 368.789062 1120.867188 370.933594 1124.511719 376.742188 C 1127.46875 381.453125 1127.664062 387.304688 1126.632812 392.644531 C 1123.949219 406.453125 1114.300781 418.722656 1102.996094 426.96875 C 1112.601562 430.957031 1120.382812 439.128906 1123.648438 449.078125 C 1127.546875 460.988281 1123.941406 473.695312 1115.46875 482.71875 C 1111.242188 487.222656 1105.992188 490.671875 1100.175781 492.675781 C 1103.722656 503.597656 1102.152344 515.488281 1096.296875 525.414062 C 1089.707031 536.589844 1078.847656 544.546875 1066.800781 548.980469 C 1060.683594 551.230469 1054.285156 552.542969 1047.828125 553.246094 C 1049.273438 568.042969 1045.996094 583.21875 1038.402344 596.035156 C 1030.675781 609.070312 1018.582031 618.964844 1004.550781 624.546875 C 997.378906 627.402344 989.757812 629.03125 982.054688 629.414062 C 982.28125 644.429688 976.277344 659.40625 965.28125 669.761719 C 954.519531 679.886719 939.324219 684.472656 924.734375 683.140625 C 917.144531 682.445312 909.773438 680.160156 903.203125 676.320312 C 896.511719 686.980469 887.566406 696.125 876.734375 702.625 C 867.425781 708.214844 855.921875 711.890625 845.214844 708.464844 C 833.144531 704.265625 825.878906 691.789062 825.761719 679.269531 Z M 875.4375 699.367188 C 885.984375 693.03125 894.785156 683.796875 900.988281 673.203125 C 901.554688 672.230469 902.90625 671.148438 904.085938 671.90625 C 915.421875 679.167969 929.621094 681.320312 942.6875 678.082031 C 956.457031 674.667969 967.628906 665.238281 973.5 652.320312 C 976.945312 644.753906 978.46875 636.453125 977.976562 628.164062 C 977.902344 626.910156 979.09375 625.683594 980.339844 625.667969 C 994.386719 625.460938 1008.320312 620.765625 1019.5 612.1875 C 1030.953125 603.398438 1038.917969 590.828125 1042.292969 576.816406 C 1044.238281 568.730469 1044.648438 560.394531 1043.574219 552.152344 C 1043.40625 550.839844 1044.769531 549.753906 1045.9375 549.65625 C 1060.90625 548.398438 1075.84375 543.484375 1086.542969 532.488281 C 1096.855469 521.882812 1101.109375 506.621094 1095.628906 492.628906 C 1095.15625 491.410156 1096.234375 490.054688 1097.375 489.75 C 1107.996094 486.949219 1117.054688 478.492188 1120.144531 467.859375 C 1123.125 457.632812 1119.808594 446.835938 1112.796875 439.074219 C 1108.824219 434.671875 1103.738281 431.328125 1098.054688 429.597656 C 1096.132812 429.007812 1097.023438 426.847656 1098.253906 426.054688 C 1108.941406 419.207031 1118.148438 408.4375 1121.863281 396.140625 C 1123.351562 391.207031 1123.980469 385.566406 1121.785156 380.746094 C 1119.019531 374.675781 1112.246094 372.523438 1106.054688 372.074219 C 1082.753906 370.371094 1060.148438 382.828125 1044.0625 398.816406 C 1032.644531 410.164062 1023.699219 423.773438 1016.011719 437.847656 C 1015.496094 438.792969 1014.042969 439.941406 1012.910156 439.140625 C 1005.976562 434.277344 996.855469 433.566406 988.90625 436.226562 C 979.445312 439.386719 972.453125 447.601562 967.601562 455.96875 C 966.96875 457.054688 965.757812 457.882812 964.5 457.261719 C 944.007812 447.179688 917.738281 450.824219 901.035156 466.558594 C 884.066406 482.539062 877.917969 508.75 885.074219 530.757812 C 889.664062 544.875 899.144531 557 911.171875 565.574219 C 912.660156 566.632812 911.5 568.753906 910.027344 569.152344 C 896.34375 572.796875 883.242188 579.570312 874.78125 591.269531 C 866.554688 602.652344 864.375 617.238281 870.855469 629.9375 C 871.335938 630.871094 870.453125 632.226562 869.617188 632.605469 C 856.984375 638.25 844.6875 645.515625 836.738281 657.175781 C 829.683594 667.535156 827.382812 680.570312 833.125 692.035156 C 835.996094 697.777344 840.828125 702.574219 846.941406 704.714844 C 856.730469 707.847656 866.945312 704.472656 875.4375 699.367188 Z M 875.4375 699.367188 " fill-opacity="1" fill-rule="nonzero"/></g></g></g><g clip-path="url(#3d1c6584be)"><g clip-path="url(#140ded9635)"><g clip-path="url(#53f85282bc)"><path fill="#000000" d="M 578.253906 645.589844 C 585.371094 653.589844 596.996094 655.988281 607.714844 655.652344 C 620.386719 655.25 632.910156 651.550781 643.867188 645.195312 C 653.160156 663.332031 674.402344 674.710938 694.695312 672.160156 C 711.375 670.070312 726.371094 658.71875 733.71875 643.679688 C 750.589844 653.140625 771.726562 655.019531 789.921875 648.21875 C 807.289062 641.726562 821.492188 627.515625 828.441406 610.390625 C 837.085938 614.464844 846.308594 617.269531 855.835938 617.820312 C 868.863281 618.589844 882.476562 614.808594 892.019531 605.910156 C 898.097656 600.246094 902.21875 592.371094 903.351562 584.207031 C 917.105469 588.046875 933.484375 582.414062 941.109375 570.148438 C 948.90625 557.621094 946.445312 540.003906 936.363281 529.472656 C 948.695312 528.949219 960.898438 524.601562 970.675781 517.046875 C 977.242188 511.960938 983.128906 504.191406 981.515625 496.058594 C 980.261719 489.753906 974.851562 485.140625 969.300781 481.875 C 950.929688 471.058594 928.089844 469.59375 907.257812 474.3125 C 889.730469 478.285156 873.402344 486.292969 858.042969 495.742188 C 853.886719 486.535156 843.183594 480.191406 832.6875 479.871094 C 823.617188 479.597656 814.9375 482.738281 807.03125 487.363281 C 795.039062 469.324219 772.007812 458.957031 750.335938 461.980469 C 725.828125 465.417969 704.714844 485.015625 698.269531 508.882812 C 694.027344 524.625 696.035156 541.679688 702.917969 556.46875 C 693.921875 554.035156 684.582031 552.90625 675.335938 553.96875 C 662.886719 555.410156 650.644531 561.191406 643.03125 571.140625 C 638.617188 576.902344 636.019531 584.128906 635.742188 591.332031 C 627.875 590.515625 620 590.230469 612.167969 591.203125 C 599.113281 592.851562 586.015625 598.53125 578.242188 609.140625 C 570.472656 619.757812 569.53125 635.773438 578.253906 645.589844 Z M 578.253906 645.589844 " fill-opacity="1" fill-rule="nonzero"/></g></g></g><g clip-path="url(#6fd174eecd)"><g clip-path="url(#d2ebb1a53f)"><g clip-path="url(#5d16b09bfb)"><path fill="#000000" d="M 574.230469 611.761719 C 581.261719 599.234375 595.328125 592.285156 609.046875 589.921875 C 617.203125 588.519531 625.53125 588.652344 633.742188 589.371094 C 634.832031 578.558594 640.628906 568.894531 649.308594 562.308594 C 658.984375 554.964844 671.238281 551.710938 683.261719 551.816406 C 688.699219 551.863281 694.109375 552.585938 699.410156 553.746094 C 694.6875 542 692.773438 529.152344 694.539062 516.554688 C 696.304688 503.960938 701.890625 492.109375 710.238281 482.523438 C 726.652344 463.644531 752.5625 454.910156 776.6875 462.640625 C 789.113281 466.625 800.179688 474.335938 807.84375 484.890625 C 816.941406 479.996094 827.277344 476.785156 837.648438 478.632812 C 846.285156 480.171875 854.621094 485.378906 859.035156 493.042969 C 882.777344 478.820312 909.597656 467.914062 937.765625 470.347656 C 950.226562 471.429688 963.039062 475.035156 973.414062 482.195312 C 978.785156 485.902344 983.632812 491.15625 983.902344 498.007812 C 984.125 503.566406 981.382812 508.742188 977.828125 512.859375 C 968.632812 523.5 954.15625 529.339844 940.25 530.867188 C 946.597656 539.109375 949.277344 550.070312 947.160156 560.320312 C 944.613281 572.59375 935.164062 581.820312 923.324219 585.433594 C 917.417969 587.238281 911.148438 587.617188 905.101562 586.460938 C 902.746094 597.699219 895.46875 607.234375 885.449219 612.925781 C 874.171875 619.339844 860.792969 620.839844 848.136719 618.691406 C 841.710938 617.597656 835.511719 615.554688 829.558594 612.949219 C 823.449219 626.503906 813.054688 638.035156 800.089844 645.375 C 786.898438 652.835938 771.488281 655.402344 756.539062 653.261719 C 748.898438 652.171875 741.476562 649.789062 734.605469 646.289062 C 727.328125 659.425781 714.671875 669.429688 699.976562 672.9375 C 685.605469 676.367188 670.140625 672.78125 658.152344 664.367188 C 651.914062 659.988281 646.65625 654.339844 642.867188 647.738281 C 631.761719 653.65625 619.449219 657.136719 606.820312 657.386719 C 595.960938 657.601562 584.15625 655.066406 576.574219 646.769531 C 568.195312 637.117188 568.101562 622.679688 574.230469 611.761719 Z M 607.316406 653.914062 C 619.617188 653.667969 631.84375 650.035156 642.496094 643.933594 C 643.472656 643.371094 645.183594 643.105469 645.832031 644.351562 C 652.050781 656.289062 663.296875 665.222656 676.238281 668.917969 C 689.882812 672.804688 704.265625 670.183594 715.789062 661.902344 C 722.539062 657.054688 727.988281 650.609375 731.691406 643.175781 C 732.25 642.054688 733.894531 641.578125 734.980469 642.1875 C 747.269531 648.996094 761.691406 651.859375 775.65625 649.976562 C 789.964844 648.058594 803.128906 641.117188 813.027344 630.640625 C 818.742188 624.59375 823.246094 617.566406 826.414062 609.882812 C 826.921875 608.660156 828.644531 608.398438 829.707031 608.898438 C 843.316406 615.253906 858.714844 618.421875 873.472656 614.207031 C 887.691406 610.144531 898.972656 599.019531 901.183594 584.152344 C 901.378906 582.863281 902.992188 582.222656 904.128906 582.527344 C 914.738281 585.382812 926.804688 582.554688 934.773438 574.871094 C 942.445312 567.484375 944.941406 556.46875 942.726562 546.246094 C 941.46875 540.453125 938.722656 535.019531 934.652344 530.691406 C 933.277344 529.222656 935.125 527.792969 936.589844 527.71875 C 949.269531 527.09375 962.609375 522.332031 971.949219 513.515625 C 975.699219 509.976562 979.050781 505.398438 979.546875 500.121094 C 980.167969 493.484375 975.363281 488.246094 970.21875 484.773438 C 950.851562 471.703125 925.042969 471.261719 903.136719 477.121094 C 887.585938 481.285156 873.054688 488.636719 859.382812 497.019531 C 858.46875 497.585938 856.632812 497.855469 856.050781 496.601562 C 852.453125 488.929688 844.898438 483.777344 836.679688 482.125 C 826.898438 480.160156 816.746094 483.808594 808.375 488.648438 C 807.285156 489.277344 805.824219 489.390625 805.039062 488.230469 C 792.28125 469.285156 767.683594 459.375 745.367188 464.714844 C 722.695312 470.132812 704.316406 489.804688 699.574219 512.457031 C 696.53125 526.984375 698.722656 542.222656 704.886719 555.644531 C 705.652344 557.304688 703.589844 558.566406 702.113281 558.175781 C 688.433594 554.53125 673.695312 553.886719 660.535156 559.824219 C 647.734375 565.605469 638.589844 577.167969 637.890625 591.410156 C 637.839844 592.460938 636.402344 593.195312 635.488281 593.109375 C 621.722656 591.714844 607.4375 591.898438 594.742188 598.058594 C 583.46875 603.535156 574.988281 613.699219 574.261719 626.5 C 573.894531 632.910156 575.699219 639.472656 579.933594 644.375 C 586.867188 651.960938 597.410156 654.117188 607.316406 653.914062 Z M 607.316406 653.914062 " fill-opacity="1" fill-rule="nonzero"/></g></g></g><g clip-path="url(#f8b9685da7)"><g clip-path="url(#bb46869e81)"><g clip-path="url(#f710b0d01d)"><path fill="#000000" d="M 601.027344 545.894531 C 602.417969 548.105469 603.617188 550.433594 604.609375 552.847656 C 606.167969 556.558594 608.277344 560.007812 610.84375 563.105469 C 613.238281 565.929688 616.054688 568.277344 619.023438 570.453125 C 621.1875 572.042969 623.632812 572.449219 626.179688 572.160156 C 629.414062 571.789062 632.613281 571.289062 635.820312 570.746094 C 638.734375 570.269531 641.59375 569.527344 644.546875 569.476562 C 648.671875 569.34375 652.777344 570.265625 656.464844 572.152344 C 659.15625 573.566406 661.867188 574.894531 664.585938 576.292969 C 666.539062 577.300781 668.179688 578.761719 669.671875 580.347656 C 673.316406 584.238281 676.007812 588.640625 677.464844 593.828125 C 679.1875 599.9375 680.394531 606.179688 681.066406 612.519531 C 681.558594 617.222656 680.882812 621.851562 679.808594 626.425781 C 679.25 628.929688 678.390625 631.359375 677.214844 633.644531 C 675.878906 636.214844 673.976562 638.460938 671.605469 640.132812 C 669.066406 641.949219 666.484375 643.636719 663.425781 644.425781 C 657.480469 645.972656 651.695312 645.589844 646.402344 642.296875 C 644.382812 641.066406 642.546875 639.464844 640.78125 637.859375 C 636.867188 634.320312 632.421875 631.4375 627.589844 629.320312 C 623.953125 627.699219 620.074219 626.898438 616.144531 626.203125 C 611.859375 625.46875 607.566406 624.84375 603.328125 623.890625 C 597.230469 622.507812 591.296875 620.539062 585.847656 617.414062 C 582.738281 615.621094 579.824219 613.597656 577.464844 610.898438 C 573.367188 606.203125 571.289062 600.792969 572.0625 594.5 C 572.472656 590.964844 573.054688 587.472656 573.527344 583.976562 C 573.984375 580.824219 574.414062 577.6875 574.097656 574.488281 C 573.8125 570.855469 572.570312 567.359375 570.542969 564.347656 C 568.980469 562.09375 567.304688 559.90625 565.707031 557.714844 C 563.9375 555.25 562.359375 552.667969 561.367188 549.769531 C 559.574219 544.636719 560.785156 540.160156 564.347656 536.230469 C 567.636719 532.652344 571.863281 530.851562 576.546875 530.042969 C 578.839844 529.648438 581.179688 529.636719 583.449219 530 C 586.5625 530.523438 589.125 532.089844 591.484375 534.121094 C 594.089844 536.371094 596.199219 539.035156 598.167969 541.824219 Z M 601.027344 545.894531 " fill-opacity="1" fill-rule="nonzero"/></g></g></g><g clip-path="url(#ed3a708aaa)"><path fill="#000000" d="M 564.097656 617.777344 L 559.703125 617.242188 C 559.703125 617.242188 557.492188 600.679688 557.757812 599.9375 C 558.027344 599.195312 556.507812 593.511719 553.730469 569.035156 C 552.371094 557.066406 553.242188 554.5 554.515625 554.710938 C 553.90625 544.0625 553.699219 533.296875 553.734375 523.09375 C 553.191406 519.320312 552.617188 515.242188 552.085938 511.191406 C 550.441406 498.582031 551.046875 495.367188 551.046875 495.367188 L 555.929688 469.632812 C 556.183594 466.402344 556.355469 464.597656 556.355469 464.597656 L 576.453125 464.597656 C 576.453125 464.597656 577.617188 469.949219 578.929688 479.097656 C 578.929688 479.097656 581.820312 482.882812 581.820312 484.984375 C 581.820312 487.085938 582.144531 482.5 581.945312 494.132812 C 581.835938 500.417969 582 507.59375 582.1875 513.355469 C 582.339844 516.539062 582.472656 521.425781 582.472656 521.425781 L 585.339844 529.765625 C 585.339844 529.765625 585.015625 538.507812 584.523438 540.976562 C 584.03125 543.449219 583.785156 546.539062 583.171875 551.484375 C 582.558594 556.429688 583.664062 560.367188 582.433594 566.183594 C 581.207031 572.003906 581.820312 583.746094 581.820312 583.746094 L 580.222656 585.105469 C 580.222656 585.105469 579.730469 585.582031 579.097656 586.257812 C 578.980469 590.550781 579.015625 594.640625 579.175781 598.515625 C 579.386719 599.25 579.617188 600.050781 579.855469 600.925781 C 581.820312 608.09375 582.433594 611.183594 582.433594 611.183594 C 582.433594 611.183594 583.019531 620.4375 582.433594 621.195312 C 582.257812 621.429688 582.070312 621.769531 581.890625 622.132812 C 585.613281 641.097656 591.652344 650.839844 591.652344 650.839844 L 586.117188 653.882812 C 584.875 652.980469 583.378906 651.851562 583.378906 651.851562 C 583.378906 651.851562 583.542969 652.921875 582.804688 648.472656 C 582.066406 644.023438 582.066406 644.023438 582.066406 644.023438 L 579.28125 644.847656 C 579.28125 644.847656 579.691406 646.742188 579.691406 647.648438 C 579.691406 648.554688 579.28125 649.132812 577.972656 647.8125 C 576.660156 646.496094 576.085938 646 576.085938 646 L 572.691406 645.671875 L 572.691406 650.53125 L 570.515625 653.417969 C 570.515625 653.417969 570.269531 657.796875 570.105469 658.125 C 569.941406 658.457031 574.484375 657.621094 574.484375 657.621094 L 578.425781 662.859375 L 552.542969 672.359375 C 552.542969 672.359375 569.472656 653.484375 564.097656 617.777344 Z M 564.097656 617.777344 " fill-opacity="1" fill-rule="nonzero"/></g><g clip-path="url(#c11da0e417)"><path fill="#000000" d="M 475.632812 617.777344 L 471.238281 617.242188 C 471.238281 617.242188 469.027344 600.679688 469.292969 599.9375 C 469.5625 599.195312 468.042969 593.511719 465.265625 569.035156 C 463.90625 557.066406 464.777344 554.5 466.050781 554.710938 C 465.441406 544.0625 465.234375 533.296875 465.269531 523.09375 C 464.726562 519.320312 464.152344 515.242188 463.621094 511.191406 C 461.976562 498.582031 462.582031 495.367188 462.582031 495.367188 L 467.464844 469.632812 C 467.71875 466.402344 467.890625 464.597656 467.890625 464.597656 L 487.988281 464.597656 C 487.988281 464.597656 489.152344 469.949219 490.464844 479.097656 C 490.464844 479.097656 493.355469 482.882812 493.355469 484.984375 C 493.355469 487.085938 493.679688 482.5 493.480469 494.132812 C 493.371094 500.417969 493.535156 507.59375 493.722656 513.355469 C 493.875 516.539062 494.007812 521.425781 494.007812 521.425781 L 496.875 529.765625 C 496.875 529.765625 496.550781 538.507812 496.058594 540.976562 C 495.566406 543.449219 495.320312 546.539062 494.707031 551.484375 C 494.09375 556.429688 495.199219 560.367188 493.96875 566.183594 C 492.742188 572.003906 493.355469 583.746094 493.355469 583.746094 L 491.757812 585.105469 C 491.757812 585.105469 491.261719 585.582031 490.632812 586.257812 C 490.515625 590.550781 490.550781 594.640625 490.707031 598.515625 C 490.921875 599.25 491.148438 600.050781 491.390625 600.925781 C 493.355469 608.09375 493.96875 611.183594 493.96875 611.183594 C 493.96875 611.183594 494.554688 620.4375 493.96875 621.195312 C 493.792969 621.429688 493.601562 621.769531 493.425781 622.132812 C 497.148438 641.097656 503.183594 650.839844 503.183594 650.839844 L 497.652344 653.882812 C 496.410156 652.980469 494.914062 651.851562 494.914062 651.851562 C 494.914062 651.851562 495.074219 652.921875 494.339844 648.472656 C 493.601562 644.023438 493.601562 644.023438 493.601562 644.023438 L 490.816406 644.847656 C 490.816406 644.847656 491.226562 646.742188 491.226562 647.648438 C 491.226562 648.554688 490.816406 649.132812 489.507812 647.8125 C 488.195312 646.496094 487.621094 646 487.621094 646 L 484.226562 645.671875 L 484.226562 650.53125 L 482.050781 653.417969 C 482.050781 653.417969 481.804688 657.796875 481.640625 658.125 C 481.476562 658.457031 486.019531 657.621094 486.019531 657.621094 L 489.960938 662.859375 L 464.074219 672.359375 C 464.074219 672.359375 481.003906 653.484375 475.632812 617.777344 Z M 475.632812 617.777344 " fill-opacity="1" fill-rule="nonzero"/></g><g clip-path="url(#22971ce764)"><g clip-path="url(#74ae2370ce)"><g clip-path="url(#015e946409)"><path fill="#000000" d="M 454.410156 543.847656 C 453.347656 546.230469 452.492188 548.703125 451.851562 551.238281 C 450.832031 555.128906 449.234375 558.84375 447.136719 562.273438 C 445.164062 565.410156 442.710938 568.132812 440.082031 570.710938 C 438.164062 572.589844 435.800781 573.339844 433.242188 573.414062 C 429.984375 573.503906 426.75 573.464844 423.496094 573.382812 C 420.546875 573.324219 417.605469 572.996094 414.679688 573.363281 C 410.574219 573.816406 406.644531 575.3125 403.261719 577.703125 C 400.796875 579.488281 398.300781 581.183594 395.808594 582.957031 C 394.015625 584.226562 392.601562 585.90625 391.351562 587.691406 C 388.292969 592.058594 386.253906 596.796875 385.546875 602.140625 C 384.707031 608.433594 384.398438 614.78125 384.632812 621.15625 C 384.816406 625.878906 386.140625 630.363281 387.855469 634.742188 C 388.761719 637.140625 389.957031 639.421875 391.445312 641.519531 C 393.128906 643.871094 395.335938 645.828125 397.917969 647.144531 C 400.691406 648.582031 403.484375 649.886719 406.625 650.234375 C 412.730469 650.921875 418.402344 649.722656 423.175781 645.710938 C 424.996094 644.207031 426.589844 642.363281 428.105469 640.519531 C 431.480469 636.460938 435.46875 632.980469 439.957031 630.195312 C 443.324219 628.074219 447.050781 626.734375 450.839844 625.488281 C 454.980469 624.148438 459.140625 622.925781 463.199219 621.378906 C 469.039062 619.144531 474.636719 616.351562 479.585938 612.488281 C 482.410156 610.269531 485.007812 607.855469 486.957031 604.847656 C 490.351562 599.617188 491.636719 593.96875 489.980469 587.847656 C 489.074219 584.40625 488 581.035156 487.035156 577.640625 C 486.136719 574.585938 485.265625 571.539062 485.125 568.328125 C 484.890625 564.691406 485.625 561.054688 487.207031 557.785156 C 488.433594 555.332031 489.777344 552.929688 491.050781 550.53125 C 492.453125 547.84375 493.648438 545.066406 494.21875 542.050781 C 495.265625 536.714844 493.429688 532.460938 489.347656 529.074219 C 485.585938 526 481.144531 524.816406 476.394531 524.679688 C 474.070312 524.613281 471.75 524.933594 469.554688 525.617188 C 466.546875 526.578125 464.234375 528.492188 462.1875 530.835938 C 459.929688 533.433594 458.214844 536.367188 456.664062 539.410156 Z M 454.410156 543.847656 " fill-opacity="1" fill-rule="nonzero"/></g></g></g><g clip-path="url(#3ea9dca5b1)"><g clip-path="url(#32893d419c)"><g clip-path="url(#b184695fd1)"><path fill="#000000" d="M 490.957031 623.175781 C 484.535156 631.742188 473.148438 635.105469 462.4375 635.667969 C 449.78125 636.328125 436.992188 633.6875 425.539062 628.273438 C 417.796875 647.125 397.582031 660.238281 377.144531 659.394531 C 360.351562 658.710938 344.457031 648.652344 335.878906 634.285156 C 319.855469 645.121094 298.953125 648.761719 280.25 643.507812 C 262.398438 638.492188 247.058594 625.519531 238.699219 609.035156 C 230.425781 613.820312 221.46875 617.386719 212.023438 618.734375 C 199.105469 620.589844 185.222656 617.960938 174.972656 609.890625 C 168.4375 604.757812 163.671875 597.257812 161.863281 589.210938 C 148.476562 594.191406 131.683594 589.949219 123.058594 578.367188 C 114.238281 566.535156 115.222656 548.769531 124.386719 537.433594 C 112.050781 537.945312 99.527344 534.632812 89.152344 527.921875 C 82.183594 523.40625 75.667969 516.15625 76.597656 507.917969 C 77.316406 501.527344 82.320312 496.476562 87.578125 492.761719 C 104.980469 480.445312 127.621094 477.074219 148.769531 480.03125 C 166.570312 482.527344 183.511719 489.136719 199.609375 497.269531 C 202.976562 487.746094 213.113281 480.53125 223.546875 479.328125 C 232.558594 478.296875 241.472656 480.703125 249.738281 484.652344 C 260.179688 465.671875 282.261719 453.410156 304.113281 454.613281 C 328.820312 455.984375 351.5 473.746094 359.917969 496.992188 C 365.464844 512.320312 364.890625 529.484375 359.269531 544.800781 C 368.03125 541.621094 377.246094 539.710938 386.542969 540 C 399.070312 540.394531 411.753906 545.128906 420.175781 554.40625 C 425.054688 559.78125 428.246094 566.761719 429.128906 573.917969 C 436.902344 572.449219 444.722656 571.503906 452.609375 571.820312 C 465.757812 572.367188 479.285156 576.929688 487.917969 586.851562 C 496.546875 596.78125 498.828125 612.660156 490.957031 623.175781 Z M 490.957031 623.175781 " fill-opacity="1" fill-rule="nonzero"/></g></g></g><g clip-path="url(#192847ab8d)"><g clip-path="url(#f1bdf3149c)"><g clip-path="url(#adc3fbe355)"><path fill="#000000" d="M 492.136719 589.128906 C 484.078125 577.234375 469.480469 571.484375 455.613281 570.277344 C 447.367188 569.566406 439.082031 570.394531 430.957031 571.796875 C 428.964844 561.113281 422.378906 551.96875 413.179688 546.132812 C 402.921875 539.625 390.4375 537.40625 378.46875 538.519531 C 373.054688 539.019531 367.722656 540.195312 362.539062 541.792969 C 366.261719 529.695312 367.09375 516.730469 364.28125 504.324219 C 361.464844 491.921875 354.90625 480.578125 345.789062 471.726562 C 327.851562 454.289062 301.300781 447.753906 277.90625 457.472656 C 265.859375 462.484375 255.472656 471.09375 248.722656 482.253906 C 239.246094 478.140625 228.679688 475.800781 218.496094 478.511719 C 210.019531 480.769531 202.152344 486.652344 198.394531 494.660156 C 173.542969 482.476562 145.902344 473.851562 118.039062 478.632812 C 105.710938 480.757812 93.246094 485.421875 83.507812 493.421875 C 78.464844 497.566406 74.074219 503.210938 74.378906 510.058594 C 74.625 515.617188 77.789062 520.542969 81.675781 524.347656 C 91.730469 534.183594 106.644531 538.792969 120.628906 539.152344 C 114.992188 547.890625 113.238281 559.039062 116.207031 569.078125 C 119.773438 581.09375 129.960938 589.5 142.0625 592.105469 C 148.097656 593.410156 154.378906 593.265625 160.304688 591.605469 C 163.59375 602.609375 171.644531 611.5 182.105469 616.335938 C 193.878906 621.78125 207.335938 622.160156 219.769531 618.957031 C 226.078125 617.328125 232.089844 614.773438 237.804688 611.683594 C 245.023438 624.675781 256.34375 635.296875 269.878906 641.527344 C 283.648438 647.859375 299.21875 649.125 313.9375 645.738281 C 321.460938 644.011719 328.65625 641.019531 335.210938 636.957031 C 343.5625 649.441406 357.011719 658.347656 371.945312 660.613281 C 386.558594 662.828125 401.664062 657.960938 412.910156 648.574219 C 418.757812 643.6875 423.527344 637.617188 426.746094 630.726562 C 438.3125 635.691406 450.871094 638.125 463.476562 637.320312 C 474.3125 636.625 485.867188 633.109375 492.730469 624.207031 C 500.269531 613.890625 499.15625 599.496094 492.136719 589.128906 Z M 462.691406 633.902344 C 450.414062 634.683594 437.925781 632.089844 426.800781 626.898438 C 425.78125 626.421875 424.054688 626.300781 423.511719 627.597656 C 418.3125 640.011719 407.855469 649.859375 395.265625 654.621094 C 381.996094 659.636719 367.445312 658.226562 355.269531 650.941406 C 348.132812 646.671875 342.164062 640.707031 337.855469 633.609375 C 337.207031 632.539062 335.527344 632.203125 334.492188 632.902344 C 322.820312 640.714844 308.6875 644.773438 294.613281 644.066406 C 280.191406 643.351562 266.496094 637.535156 255.753906 627.925781 C 249.554688 622.378906 244.480469 615.753906 240.675781 608.363281 C 240.070312 607.1875 238.332031 607.070312 237.316406 607.65625 C 224.285156 615.128906 209.203125 619.574219 194.148438 616.609375 C 179.636719 613.75 167.464844 603.609375 164.015625 588.980469 C 163.714844 587.710938 162.054688 587.207031 160.945312 587.605469 C 150.613281 591.339844 138.355469 589.53125 129.765625 582.539062 C 121.503906 575.820312 118.09375 565.054688 119.449219 554.683594 C 120.214844 548.804688 122.496094 543.160156 126.191406 538.507812 C 127.4375 536.925781 125.476562 535.660156 124.011719 535.703125 C 111.324219 536.144531 97.632812 532.515625 87.585938 524.515625 C 83.554688 521.300781 79.832031 517.019531 78.898438 511.800781 C 77.722656 505.238281 82.070312 499.617188 86.910156 495.726562 C 105.113281 481.082031 130.792969 478.480469 153.113281 482.488281 C 168.957031 485.332031 184.054688 491.445312 198.378906 498.65625 C 199.339844 499.140625 201.1875 499.257812 201.667969 497.957031 C 204.605469 490.011719 211.703125 484.242188 219.757812 481.910156 C 229.335938 479.136719 239.757812 481.917969 248.507812 486.042969 C 249.644531 486.578125 251.113281 486.570312 251.796875 485.347656 C 262.921875 465.402344 286.605469 453.46875 309.292969 456.917969 C 332.335938 460.421875 352.296875 478.488281 358.917969 500.664062 C 363.164062 514.886719 362.257812 530.25 357.238281 544.140625 C 356.617188 545.859375 358.773438 546.945312 360.214844 546.433594 C 373.542969 541.65625 388.175781 539.78125 401.785156 544.597656 C 415.023438 549.285156 425.105469 560.042969 426.992188 574.175781 C 427.128906 575.21875 428.625 575.832031 429.53125 575.667969 C 443.132812 573.128906 457.378906 572.117188 470.546875 577.191406 C 482.242188 581.707031 491.542969 591.121094 493.335938 603.816406 C 494.238281 610.171875 492.988281 616.867188 489.179688 622.101562 C 482.90625 630.246094 472.582031 633.273438 462.691406 633.902344 Z M 462.691406 633.902344 " fill-opacity="1" fill-rule="nonzero"/></g></g></g><g clip-path="url(#4c36b51156)"><g clip-path="url(#cd7eab5792)"><g clip-path="url(#87892c634e)"><path fill="#000000" d="M 199.371094 617.273438 C 191.226562 624.222656 179.382812 625.003906 168.808594 623.203125 C 156.3125 621.070312 144.414062 615.691406 134.429688 607.894531 C 122.742188 624.589844 100.140625 632.945312 80.386719 627.640625 C 64.152344 623.289062 50.851562 609.988281 45.632812 594.085938 C 27.625 601.140625 6.429688 600.109375 -10.660156 590.878906 C -26.976562 582.070312 -39.097656 566.046875 -43.636719 548.132812 C -52.757812 550.984375 -62.277344 552.496094 -71.789062 551.738281 C -84.800781 550.714844 -97.769531 545.105469 -106 534.984375 C -111.246094 528.542969 -114.25 520.175781 -114.253906 511.933594 C -128.402344 513.851562 -143.855469 506.03125 -149.730469 492.835938 C -155.738281 479.359375 -150.882812 462.242188 -139.453125 453.191406 C -151.601562 450.984375 -163.09375 445.003906 -171.742188 436.183594 C -177.550781 430.246094 -182.316406 421.746094 -179.601562 413.910156 C -177.5 407.832031 -171.507812 404.003906 -165.5625 401.535156 C -145.882812 393.332031 -123.054688 395.011719 -103.070312 402.539062 C -86.25 408.878906 -71.171875 419.046875 -57.253906 430.511719 C -51.875 421.957031 -40.402344 417.140625 -29.960938 418.261719 C -20.941406 419.230469 -12.773438 423.53125 -5.574219 429.199219 C 8.777344 412.972656 33.011719 405.855469 54.0625 411.824219 C 77.871094 418.582031 96.101562 440.886719 99.214844 465.414062 C 101.261719 481.585938 96.933594 498.207031 88.089844 511.914062 C 97.335938 510.734375 106.742188 510.894531 115.753906 513.214844 C 127.886719 516.351562 139.222656 523.753906 145.402344 534.652344 C 148.984375 540.964844 150.566406 548.476562 149.859375 555.652344 C 157.761719 555.921875 165.601562 556.71875 173.230469 558.753906 C 185.933594 562.175781 198.128906 569.59375 204.375 581.167969 C 210.617188 592.75 209.359375 608.742188 199.371094 617.273438 Z M 199.371094 617.273438 " fill-opacity="1" fill-rule="nonzero"/></g></g></g><g clip-path="url(#f66119a2c2)"><g clip-path="url(#75e9398515)"><g clip-path="url(#13728ccb19)"><path fill="#000000" d="M 207.992188 584.316406 C 202.742188 570.945312 189.761719 562.128906 176.496094 557.910156 C 168.609375 555.40625 160.339844 554.394531 152.105469 553.980469 C 152.507812 543.125 148.089844 532.753906 140.394531 525.042969 C 131.816406 516.445312 120.121094 511.539062 108.199219 510 C 102.808594 509.296875 97.347656 509.277344 91.941406 509.699219 C 98.226562 498.710938 101.882812 486.246094 101.859375 473.527344 C 101.832031 460.808594 97.925781 448.300781 90.972656 437.664062 C 77.296875 416.714844 52.828125 404.515625 27.871094 408.863281 C 15.015625 411.109375 2.996094 417.230469 -6.039062 426.636719 C -14.382812 420.542969 -24.179688 415.945312 -34.707031 416.355469 C -43.472656 416.695312 -52.441406 420.710938 -57.863281 427.699219 C -79.4375 410.359375 -104.507812 395.878906 -132.742188 394.433594 C -145.238281 393.796875 -158.421875 395.613281 -169.683594 401.285156 C -175.507812 404.222656 -181.03125 408.761719 -182.238281 415.511719 C -183.214844 420.988281 -181.210938 426.488281 -178.253906 431.054688 C -170.601562 442.855469 -157.0625 450.625 -143.496094 454.042969 C -150.914062 461.335938 -155.070312 471.824219 -154.375 482.269531 C -153.535156 494.777344 -145.4375 505.214844 -134.203125 510.410156 C -128.601562 513.007812 -122.445312 514.242188 -116.296875 513.925781 C -115.503906 525.378906 -109.597656 535.824219 -100.453125 542.835938 C -90.160156 550.730469 -77.113281 554.054688 -64.28125 553.65625 C -57.769531 553.453125 -51.34375 552.277344 -45.089844 550.515625 C -40.898438 564.777344 -32.183594 577.625 -20.34375 586.671875 C -8.300781 595.871094 6.613281 600.519531 21.714844 600.445312 C 29.433594 600.414062 37.113281 599.074219 44.394531 596.546875 C 49.804688 610.558594 60.972656 622.203125 75.046875 627.6875 C 88.816406 633.054688 104.625 631.621094 117.65625 624.929688 C 124.433594 621.445312 130.417969 616.570312 135.070312 610.550781 C 145.261719 617.933594 156.984375 623.066406 169.457031 625.046875 C 180.183594 626.746094 192.226562 625.847656 200.875 618.667969 C 210.496094 610.257812 212.566406 595.972656 207.992188 584.316406 Z M 169.441406 621.535156 C 157.292969 619.605469 145.675781 614.335938 135.960938 606.832031 C 135.074219 606.140625 133.414062 605.644531 132.601562 606.789062 C 124.804688 617.761719 112.441406 625.074219 99.113281 626.957031 C 85.066406 628.941406 71.179688 624.371094 60.898438 614.589844 C 54.875 608.863281 50.359375 601.734375 47.710938 593.863281 C 47.3125 592.671875 45.75 591.980469 44.585938 592.433594 C 31.484375 597.492188 16.804688 598.355469 3.226562 594.578125 C -10.683594 590.714844 -22.773438 582.035156 -31.140625 570.300781 C -35.972656 563.53125 -39.472656 555.953125 -41.558594 547.910156 C -41.894531 546.628906 -43.566406 546.132812 -44.683594 546.480469 C -59.035156 550.910156 -74.726562 551.941406 -88.765625 545.746094 C -102.292969 539.773438 -111.945312 527.207031 -112.097656 512.179688 C -112.113281 510.875 -113.625 510.019531 -114.792969 510.164062 C -125.691406 511.539062 -137.257812 507.082031 -144.101562 498.378906 C -150.6875 490.011719 -151.652344 478.757812 -148.054688 468.9375 C -146.019531 463.367188 -142.554688 458.363281 -137.929688 454.632812 C -136.367188 453.367188 -138 451.699219 -139.4375 451.421875 C -151.914062 449.070312 -164.476562 442.523438 -172.523438 432.511719 C -175.75 428.492188 -178.441406 423.5 -178.210938 418.203125 C -177.914062 411.542969 -172.441406 407.011719 -166.867188 404.277344 C -145.894531 393.984375 -120.269531 397.078125 -99.371094 405.886719 C -84.535156 412.140625 -71.152344 421.417969 -58.753906 431.59375 C -57.925781 432.277344 -56.144531 432.796875 -55.394531 431.632812 C -50.785156 424.527344 -42.59375 420.457031 -34.226562 419.949219 C -24.269531 419.339844 -14.710938 424.34375 -7.082031 430.285156 C -6.089844 431.058594 -4.65625 431.371094 -3.722656 430.328125 C 11.511719 413.3125 37.234375 406.863281 58.613281 415.207031 C 80.328125 423.679688 95.835938 445.6875 97.429688 468.773438 C 98.453125 483.582031 94.199219 498.375 86.253906 510.828125 C 85.269531 512.367188 87.136719 513.898438 88.652344 513.714844 C 102.707031 511.980469 117.390625 513.359375 129.613281 521.042969 C 141.5 528.523438 148.976562 541.230469 147.71875 555.433594 C 147.625 556.480469 148.949219 557.40625 149.867188 557.445312 C 163.691406 557.953125 177.816406 560.089844 189.550781 567.933594 C 199.96875 574.902344 206.976562 586.128906 205.941406 598.90625 C 205.425781 605.308594 202.738281 611.5625 197.871094 615.835938 C 189.964844 622.402344 179.230469 623.09375 169.441406 621.535156 Z M 169.441406 621.535156 " fill-opacity="1" fill-rule="nonzero"/></g></g></g></svg>